<svg width="30" height="30" viewBox="0 0 30 30" fill="none" xmlns="http://www.w3.org/2000/svg">
<path d="M17.8184 7.44141C17.269 6.89209 16.3793 6.89209 15.8297 7.44141L9.26719 14.0039C9.04102 14.2793 8.90625 14.6367 8.90625 15C8.90625 15.3633 9.04359 15.7195 9.31822 15.9943L15.8807 22.5568C16.43 23.1062 17.3198 23.1062 17.8694 22.5568C18.419 22.0075 18.4187 21.1178 17.8694 20.5682L12.2988 15L17.867 9.43184C18.416 8.88281 18.416 7.99219 17.8184 7.44141ZM15 0C6.71484 0 0 6.71484 0 15C0 23.2852 6.71484 30 15 30C23.2852 30 30 23.2852 30 15C30 6.71484 23.2852 0 15 0ZM15 27.1875C8.2793 27.1875 2.8125 21.7201 2.8125 15C2.8125 8.27988 8.2793 2.8125 15 2.8125C21.7207 2.8125 27.1875 8.27988 27.1875 15C27.1875 21.7201 21.7207 27.1875 15 27.1875Z" fill="#424242"/>
</svg>
