<svg width="257" height="164" viewBox="0 0 257 164" fill="none" xmlns="http://www.w3.org/2000/svg">
<g opacity="0.1">
<path d="M22.3994 56.8848H15.6541V109.354H22.3994V56.8848Z" fill="#424242"/>
<path d="M19.0515 122.073C24.2841 122.073 28.5259 117.831 28.5259 112.599C28.5259 107.366 24.2841 103.124 19.0515 103.124C13.819 103.124 9.57715 107.366 9.57715 112.599C9.57715 117.831 13.819 122.073 19.0515 122.073Z" fill="#424242"/>
<path d="M19.0517 148.642C14.16 148.642 10.4527 144.214 11.3795 139.425L16.6316 111.672H21.4718L26.7239 139.425C27.6507 144.214 23.9948 148.642 19.0517 148.642Z" fill="#424242"/>
<path d="M197.88 83.4541L137.429 105.544C134.391 106.625 131.302 107.192 128.058 107.192C124.866 107.14 121.673 106.574 118.687 105.441L61.1195 84.3809C56.5882 92.1561 51.6966 105.029 50.6153 125.11C50.4093 129.333 53.3958 132.989 57.5666 133.606C76.7728 136.387 104.012 148.333 119.922 160.536C125.741 165.016 133.774 165.016 139.644 160.536C155.554 148.333 182.793 136.439 201.999 133.606C206.17 132.989 209.157 129.333 208.951 125.11C207.869 104.205 202.514 91.0748 197.88 83.4026V83.4541Z" fill="#424242"/>
<path d="M121.674 1.11993L3.39842 44.2695C-1.13281 45.9173 -1.13281 52.3537 3.39842 54.0529L121.674 97.2025C125.793 98.6957 130.324 98.6957 134.392 97.2025L252.667 54.0529C257.198 52.4052 257.198 45.9688 252.667 44.2695L134.392 1.11993C130.273 -0.373311 125.741 -0.373311 121.674 1.11993Z" fill="#424242"/>
</g>
</svg>
