<svg width="75" height="44" viewBox="0 0 75 44" fill="none" xmlns="http://www.w3.org/2000/svg">
<path fill-rule="evenodd" clip-rule="evenodd" d="M70.2228 32.9197L34.1819 42.4379C30.7556 43.3424 67.7692 30.1039 66.8625 26.6798L66.2132 15.3207C65.7735 13.6531 20.7953 14.2181 21.5722 12.8216C22.3901 11.3476 23.7843 10.1971 25.5431 9.73236L61.5839 0.214139C65.0103 -0.690299 68.521 1.35321 69.4254 4.7796L74.786 25.0782C75.6904 28.5046 73.6469 32.0153 70.2205 32.9197H70.2228Z" fill="#424242"/>
<path d="M62.9393 23.504H1.90684C0.853721 23.504 0 24.3577 0 25.4109C0 26.464 0.853721 27.3177 1.90684 27.3177H62.9393C63.9924 27.3177 64.8462 26.464 64.8462 25.4109C64.8462 24.3577 63.9924 23.504 62.9393 23.504Z" fill="#6666CC"/>
<path fill-rule="evenodd" clip-rule="evenodd" d="M64.0145 9.76648H26.7366C23.1941 9.76648 20.3213 12.6393 20.3213 16.1818V16.2023H61.1964C63.2126 16.2023 64.8461 17.8358 64.8461 19.852C64.8461 21.8682 63.2126 23.5016 61.1964 23.5016H20.3213V27.3153H43.4699C44.5224 27.3153 45.3767 28.1696 45.3767 29.2222C45.3767 30.2747 44.5224 31.129 43.4699 31.129H20.3213V37.1753C20.3213 40.7179 23.1941 43.5907 26.7366 43.5907H64.0145C67.5571 43.5907 70.4299 40.7179 70.4299 37.1753V16.1818C70.4299 12.6393 67.5571 9.76648 64.0145 9.76648Z" fill="#6666CC"/>
<path d="M62.9393 31.1313H16.6444C15.5913 31.1313 14.7375 31.9851 14.7375 33.0382C14.7375 34.0913 15.5913 34.945 16.6444 34.945H62.9393C63.9924 34.945 64.8461 34.0913 64.8461 33.0382C64.8461 31.9851 63.9924 31.1313 62.9393 31.1313Z" fill="#6666CC"/>
<path d="M10.7142 31.1313H8.71397C7.66085 31.1313 6.80713 31.9851 6.80713 33.0382C6.80713 34.0913 7.66085 34.945 8.71397 34.945H10.7142C11.7673 34.945 12.621 34.0913 12.621 33.0382C12.621 31.9851 11.7673 31.1313 10.7142 31.1313Z" fill="#6666CC"/>
</svg>
