<svg width="36" height="23" viewBox="0 0 36 23" fill="none" xmlns="http://www.w3.org/2000/svg">
<path d="M3.14337 7.98291H2.19678V15.3461H3.14337V7.98291Z" fill="white"/>
<path d="M2.67356 17.1308C3.40786 17.1308 4.00312 16.5355 4.00312 15.8012C4.00312 15.0669 3.40786 14.4717 2.67356 14.4717C1.93926 14.4717 1.34399 15.0669 1.34399 15.8012C1.34399 16.5355 1.93926 17.1308 2.67356 17.1308Z" fill="white"/>
<path d="M2.67358 20.8593C1.98713 20.8593 1.46686 20.2379 1.59693 19.5659L2.33397 15.6711H3.0132L3.75024 19.5659C3.88031 20.2379 3.36727 20.8593 2.67358 20.8593Z" fill="white"/>
<path d="M27.769 11.7113L19.2858 14.8112C18.8595 14.963 18.4259 15.0425 17.9707 15.0425C17.5227 15.0352 17.0747 14.9558 16.6556 14.7968L8.57705 11.8414C7.94117 12.9325 7.25471 14.739 7.10297 17.5571C7.07407 18.1496 7.49317 18.6626 8.07846 18.7493C10.7737 19.1395 14.5962 20.8159 16.829 22.5285C17.6455 23.1571 18.7728 23.1571 19.5965 22.5285C21.8293 20.8159 25.6518 19.1468 28.3471 18.7493C28.9324 18.6626 29.3515 18.1496 29.3226 17.5571C29.1708 14.6234 28.4193 12.7808 27.769 11.7041V11.7113Z" fill="white"/>
<path d="M17.0748 0.157163L0.476909 6.21246C-0.15897 6.44369 -0.15897 7.34692 0.476909 7.58538L17.0748 13.6407C17.6528 13.8502 18.2887 13.8502 18.8596 13.6407L35.4574 7.58538C36.0933 7.35415 36.0933 6.45091 35.4574 6.21246L18.8596 0.157163C18.2815 -0.0523877 17.6456 -0.0523877 17.0748 0.157163Z" fill="white"/>
</svg>
