<svg width="60" height="60" viewBox="0 0 60 60" fill="none" xmlns="http://www.w3.org/2000/svg">
<path fill-rule="evenodd" clip-rule="evenodd" d="M28.7405 1.55435C13.8703 2.38876 2.3767 13.8158 1.59837 28.5395C0.778049 44.0546 12.6681 57.3666 28.231 58.3571C42.9853 59.2962 56.0677 48.6604 58.1487 34.0343C58.4045 32.2364 58.5027 29.1409 58.3523 27.6168C56.9486 13.3881 46.2516 2.7804 32.1239 1.60668C31.6372 1.56634 29.1999 1.52856 28.7405 1.55435ZM29.8475 3.10202C30.5587 3.32333 30.9475 4.2504 30.7249 5.19397C30.5137 6.09001 30.0804 6.33606 28.7117 6.33666L28.0869 6.33696L28.0842 6.21191C28.047 4.56767 28.025 3.08178 28.0373 3.05944C28.0745 2.99166 29.6089 3.0278 29.8475 3.10202ZM34.0413 3.32078L34.1711 3.34342L34.1469 3.52035C34.1335 3.61766 34.1148 3.70522 34.105 3.71497C34.0953 3.72472 33.6672 3.68003 33.1537 3.61556C32.6401 3.55124 32.2153 3.50311 32.2098 3.5085C32.1921 3.52605 32.0772 4.45792 32.0913 4.46991C32.0985 4.47621 32.5022 4.53124 32.9883 4.59211L33.8719 4.70292L33.8599 4.87595C33.8432 5.11465 33.8917 5.10865 32.932 4.9887C32.4567 4.92933 32.0588 4.88959 32.0477 4.90054C32.0135 4.93428 31.8975 5.93182 31.9249 5.95626C31.9392 5.96901 32.3488 6.02613 32.835 6.08326C34.0127 6.2215 33.902 6.18717 33.8704 6.40548C33.8558 6.50519 33.8393 6.5923 33.8336 6.5989C33.8165 6.61884 31.453 6.32796 31.4267 6.30262C31.4085 6.28508 31.7904 3.05959 31.8122 3.04744C31.8214 3.04234 33.9215 3.29979 34.0413 3.32078ZM26.8252 4.85976C27.3258 5.68277 27.7235 6.36859 27.7086 6.38389C27.6938 6.39903 27.5798 6.41642 27.4552 6.42227L27.2287 6.43307L26.9777 6.00049C26.7863 5.67063 26.7079 5.56792 26.6475 5.56807C26.5814 5.56807 25.9432 5.66343 25.4856 5.7417L25.3642 5.76239L25.2775 6.24025C25.2298 6.50309 25.1794 6.73669 25.1653 6.75948C25.1432 6.79532 24.7401 6.88333 24.7131 6.85814C24.7055 6.8511 25.3294 3.86761 25.4146 3.50446C25.4328 3.42664 25.7396 3.32768 25.8764 3.35557C25.8975 3.35991 26.3245 4.03674 26.8252 4.85976ZM28.4849 3.80538C28.4986 3.99896 28.5099 4.55253 28.5099 5.03563V5.91398H29.0027C30.0196 5.91398 30.2957 5.65158 30.2967 4.68373C30.2978 3.70537 30.0412 3.45348 29.0437 3.45348H28.46L28.4849 3.80538ZM25.7032 3.95322C25.7006 4.04843 25.6416 4.40304 25.5718 4.74145C25.5023 5.07972 25.4475 5.35995 25.4504 5.364C25.4561 5.37225 26.4859 5.21541 26.5007 5.20402C26.5094 5.19742 25.8281 3.96537 25.7453 3.83792C25.7177 3.79549 25.7066 3.82608 25.7032 3.95322ZM38.0606 4.19118C38.59 4.36541 38.9672 4.83786 38.9672 5.32682V5.45651L38.7464 5.44497L38.5257 5.43342L38.5003 5.255C38.3793 4.40439 37.2091 4.18398 36.7308 4.92183C36.0587 5.95866 36.3952 7.06551 37.3828 7.06701C37.6877 7.06746 37.8677 6.9799 38.0882 6.7241L38.2523 6.53353L38.4368 6.63698C38.6549 6.75963 38.6516 6.74464 38.5042 6.94826C37.6926 8.0686 35.9454 7.40092 35.9509 5.97245C35.9563 4.60486 36.899 3.80883 38.0606 4.19118ZM23.0701 4.18743C24.2168 4.6164 24.4539 6.67507 23.4169 7.19971C23.232 7.29327 21.8949 7.72929 21.8686 7.7047C21.815 7.65402 20.918 4.58252 20.9513 4.56333C21.0051 4.53259 22.1019 4.19747 22.3035 4.15024C22.5644 4.08907 22.8435 4.10256 23.0701 4.18743ZM22.2432 4.58297C21.7042 4.73231 21.4743 4.81507 21.4743 4.86021C21.4743 4.88764 21.5791 5.2529 21.7073 5.67168C21.8354 6.09046 21.9919 6.60175 22.0549 6.80792C22.118 7.01408 22.1892 7.18276 22.2132 7.18276C22.3438 7.18276 23.1359 6.89923 23.2893 6.79772C23.6165 6.58106 23.7163 6.13424 23.5667 5.55712C23.3556 4.7422 22.8944 4.40274 22.2432 4.58297ZM41.0859 5.41498C42.0395 5.59581 42.6081 6.45601 42.3751 7.36539C42.0247 8.73343 40.6482 9.23708 39.6681 8.35589C38.541 7.3426 39.6057 5.13429 41.0859 5.41498ZM19.0429 7.12699C19.4287 7.92091 19.7442 8.58724 19.7442 8.60763C19.7442 8.66746 19.4032 8.818 19.3623 8.77632C19.3129 8.72624 17.9251 5.87454 17.9425 5.8591C17.9798 5.82611 18.2689 5.68652 18.3028 5.68502C18.3241 5.68412 18.6572 6.33291 19.0429 7.12699ZM40.5071 5.8627C39.8556 6.1017 39.424 7.23974 39.7586 7.83635C40.384 8.95159 41.9728 8.26352 41.9728 6.87749C41.9728 6.12809 41.2147 5.6033 40.5071 5.8627ZM17.8263 7.70695C18.2785 8.46054 18.6539 9.09104 18.6607 9.10828C18.6733 9.14052 18.3875 9.33574 18.3277 9.33574C18.3091 9.33574 17.9936 8.83479 17.6267 8.22259C17.26 7.61024 16.9545 7.11454 16.9481 7.12099C16.9392 7.12998 17.4112 9.43035 17.4916 9.76981C17.5072 9.83519 17.2679 10.0277 17.1712 10.0277C17.1508 10.0277 16.6786 9.64281 16.1219 9.17231C14.9969 8.22169 14.9525 8.18541 14.9848 8.23998C14.9972 8.26113 15.3115 8.78471 15.6831 9.40366L16.3587 10.5288L16.1772 10.6417C16.0775 10.7038 15.9855 10.7425 15.9724 10.7275C15.869 10.6081 14.3236 7.96814 14.3369 7.93336C14.3537 7.88943 14.8026 7.60559 14.8548 7.60574C14.869 7.60574 15.3739 8.02752 15.9765 8.54271C16.5791 9.05805 17.0751 9.47758 17.0785 9.47503C17.082 9.47233 16.9481 8.83134 16.7809 8.05061C16.6139 7.26973 16.4854 6.62274 16.4953 6.61269C16.5422 6.56576 16.9233 6.34265 16.9613 6.33995C16.9848 6.33831 17.3741 6.95351 17.8263 7.70695ZM20.9537 6.81856C20.9907 6.91572 21.0149 7.00029 21.0074 7.00673C20.9197 7.08065 19.8767 7.47949 19.8565 7.44696C19.8143 7.37858 19.7305 7.10644 19.7476 7.09325C19.7981 7.05412 20.844 6.61974 20.863 6.62979C20.8757 6.63653 20.9165 6.7214 20.9537 6.81856ZM44.0263 6.87749C44.1324 6.95051 44.1871 7.01258 44.1701 7.04092C44.155 7.06611 43.9013 7.4585 43.6061 7.91327C42.6844 9.33274 42.6671 9.63232 43.4846 10.0141C44.0244 10.2661 44.1692 10.1543 45.0447 8.80945L45.625 7.91791L45.8141 8.03427C45.9295 8.10534 45.9929 8.16801 45.9769 8.1953C45.7355 8.60703 44.7894 10.0103 44.6516 10.1612C44.1614 10.6975 43.4167 10.6375 42.7892 10.0114C42.3979 9.62107 42.3352 9.25237 42.5737 8.74423C42.6782 8.52142 43.8002 6.75978 43.8376 6.75978C43.8473 6.75978 43.9322 6.81286 44.0263 6.87749ZM31.6048 7.3405C42.0735 8.00173 50.8945 16.1464 52.4403 26.5787C54.7377 42.083 41.1019 55.1801 25.705 52.2573C17.067 50.6177 10.0188 43.9155 7.95938 35.3829C4.33865 20.3815 16.1576 6.36484 31.6048 7.3405ZM47.1038 8.98173L47.2628 9.12418L47.0981 10.6236C47.0076 11.4482 46.938 12.1279 46.9436 12.1339C46.9491 12.1399 47.3132 11.716 47.7525 11.192C48.192 10.6679 48.5634 10.2391 48.5779 10.2391C48.6764 10.2391 48.8896 10.4966 48.8415 10.5574C48.5206 10.9629 46.7989 12.9881 46.775 12.9881C46.7575 12.9881 46.6726 12.9232 46.5866 12.8439L46.4299 12.6998L46.5968 11.2004C46.6885 10.3757 46.7603 9.69724 46.7561 9.69259C46.7521 9.6881 46.387 10.1163 45.9448 10.6441C45.5026 11.172 45.1315 11.6037 45.1202 11.6034C45.1086 11.6031 45.0308 11.5448 44.9468 11.4739L44.7945 11.3449L45.5803 10.4077C46.8047 8.94725 46.8999 8.83584 46.923 8.83749C46.935 8.83839 47.0163 8.90331 47.1038 8.98173ZM14.1744 10.0468C15.0068 10.5224 15.6916 10.9246 15.6959 10.9407C15.7003 10.9566 15.6195 11.0348 15.5162 11.1145L15.3284 11.2593L14.8818 10.9894C14.6362 10.8411 14.426 10.7197 14.4147 10.7197C14.3639 10.7197 13.3621 11.5383 13.3621 11.58C13.3621 11.6058 13.431 11.8316 13.5151 12.0819C13.5992 12.3321 13.6611 12.548 13.6529 12.5615C13.6445 12.575 13.5598 12.642 13.4644 12.7104L13.2912 12.8347L13.2369 12.6519C13.2071 12.5513 12.9772 11.7961 12.726 10.9735L12.2692 9.47818L12.4409 9.33019C12.5352 9.24877 12.6234 9.18205 12.6366 9.18205C12.6498 9.1819 13.3419 9.57114 14.1744 10.0468ZM12.7281 9.70099C12.746 9.74327 12.8633 10.0857 12.9888 10.4621C13.1143 10.8383 13.232 11.1412 13.2503 11.1349C13.3989 11.0842 14.0538 10.5113 14.009 10.4712C13.9811 10.4462 13.7073 10.273 13.4007 10.0865C13.0941 9.90011 12.8099 9.71973 12.7694 9.6857C12.7002 9.62782 12.6976 9.62872 12.7281 9.70099ZM11.7346 11.7481C12.2616 12.3138 12.7667 12.8575 12.8568 12.9565L13.021 13.1364L12.8744 13.2727C12.7937 13.3475 12.7162 13.4093 12.702 13.4099C12.6805 13.4108 10.7826 11.3937 10.5392 11.1113L10.465 11.0254L10.6142 10.8726C10.6964 10.7885 10.7664 10.7197 10.7698 10.7197C10.7734 10.7197 11.2075 11.1825 11.7346 11.7481ZM51.057 12.6338L51.3236 12.9139L51.1831 13.0544L51.0426 13.1949L50.6642 12.7962L50.2859 12.3975L49.2496 13.4012L48.2134 14.405L48.0524 14.2482L47.8912 14.0915L48.5713 13.4351C48.9454 13.074 49.4125 12.622 49.6093 12.4306L49.9672 12.0828L49.5928 11.6859L49.2183 11.2888L49.3682 11.163L49.518 11.0372L50.1542 11.6955C50.504 12.0574 50.9104 12.4798 51.057 12.6338ZM10.9043 12.8325C11.5602 13.4235 12.0937 13.9209 12.0899 13.9377C12.0862 13.9546 12.0278 14.0329 11.9604 14.1118L11.8377 14.2551L10.8606 13.3747C10.323 12.8903 9.87891 12.4987 9.87336 12.5041C9.86451 12.5129 10.8859 14.3855 11.1176 14.7853L11.2123 14.9486L11.0666 15.1001L10.9208 15.2519L9.6366 14.6961C8.93039 14.3905 8.34698 14.1459 8.34023 14.1527C8.33348 14.1594 8.76861 14.5605 9.30719 15.0441C9.84577 15.5275 10.2858 15.9331 10.2851 15.9454C10.2843 15.9577 10.2253 16.0358 10.1539 16.1191L10.0242 16.2707L9.66479 15.9463C9.46702 15.7677 8.92049 15.2759 8.45028 14.8534C7.98008 14.4308 7.59533 14.0741 7.59533 14.0608C7.59533 14.0474 7.69474 13.9312 7.81634 13.8024L8.0375 13.5682L9.34272 14.1417C10.0606 14.4572 10.6541 14.7094 10.6613 14.7022C10.6686 14.6949 10.3607 14.1242 9.97682 13.4339L9.2793 12.1787L9.45908 11.9682C9.55804 11.8525 9.65535 11.7579 9.67544 11.7579C9.69553 11.7579 10.2485 12.2414 10.9043 12.8325ZM51.885 13.6406C51.8848 13.6924 51.4401 15.0852 51.3644 15.2703C51.3375 15.3365 51.3501 15.3401 51.5236 15.3168C51.6272 15.303 52.032 15.2588 52.4232 15.2186L53.1345 15.1456L53.223 15.249C53.2716 15.3059 53.3446 15.3978 53.3853 15.453L53.4592 15.5536L53.2199 15.5765C53.0884 15.5891 52.5742 15.6288 52.0772 15.6648L51.1738 15.7302L50.6355 16.167L50.0972 16.6037L49.9554 16.4418C49.7834 16.2455 49.7443 16.307 50.3575 15.8119C50.9646 15.3219 50.8472 15.5291 51.2357 14.2629L51.5582 13.212L51.7217 13.3968C51.8115 13.4986 51.885 13.6083 51.885 13.6406ZM7.18735 18.4239C7.57884 18.5874 7.6775 19.0546 7.38257 19.3496C6.87487 19.8573 6.08544 19.1461 6.54726 18.5972C6.72464 18.3865 6.95104 18.3252 7.18735 18.4239ZM53.2598 18.8701C53.6919 19.1335 53.597 19.7685 53.1056 19.9015C52.6138 20.0348 52.2016 19.4643 52.4813 19.0374C52.6365 18.8006 53.0131 18.7197 53.2598 18.8701ZM37.5446 24.0608C33.5807 24.4694 30.8398 26.9882 29.2238 31.7076C29.0095 32.3334 29.0074 32.3301 29.371 31.9308C31.6801 29.3942 35.091 27.5405 38.5059 26.9663C42.2835 26.3313 46.8373 27.0202 50.5682 28.7909C50.8273 28.9139 51.0392 29.0088 51.0392 29.0016C51.0392 28.9559 49.5916 27.9774 48.867 27.5333C44.7669 25.0203 40.6089 23.745 37.5446 24.0608ZM39.8322 28.4848C35.5483 28.6404 32.0027 29.8537 29.3788 32.062C28.9919 32.3877 28.9537 32.4108 28.879 32.3631C24.4221 29.5222 18.0034 28.6224 10.8055 29.8296C9.50826 30.0471 9.45473 30.0387 12.1556 30.0396C18.9421 30.0419 24.7512 30.9295 28.5015 32.5375L28.9738 32.74L29.8856 32.4397C37.2185 30.0255 44.882 29.028 49.8089 29.8462C50.1155 29.8972 50.4269 29.9486 50.501 29.9606C50.7592 30.0026 49.63 29.6727 48.867 29.4835C46.468 28.8883 44.1665 28.5647 41.7353 28.4812C41.1538 28.4611 40.6694 28.4471 40.6589 28.4501C40.6482 28.4531 40.2762 28.4687 39.8322 28.4848ZM8.14216 30.9375C8.15296 31.0897 8.1723 31.2246 8.18489 31.2372C8.19764 31.2498 9.85641 31.4395 11.8711 31.6587C13.8859 31.8779 18.5503 32.3871 22.2366 32.7904L28.9387 33.5238L36.5192 32.6948C40.6886 32.2388 45.7865 31.6839 47.8481 31.4617C52.3831 30.9729 51.8466 31.0556 51.8466 30.8445V30.6731L49.7609 30.6733C40.2356 30.6737 32.4277 31.5783 29.3163 33.0419L28.9324 33.2224L28.512 33.0228C25.6831 31.6795 18.7475 30.8064 9.94443 30.6856L8.12237 30.6607L8.14216 30.9375ZM13.2947 46.353C13.7806 46.9976 13.6055 47.7466 12.8823 48.1168C12.3339 48.3976 11.925 48.2497 11.1291 47.4828L10.6214 46.9939L10.0675 47.568L9.5138 48.1421L9.32473 47.9523L9.13566 47.7624L10.5021 46.3493L11.8683 44.9361L12.5139 45.555C12.8691 45.8956 13.2203 46.2547 13.2947 46.353ZM11.4443 46.1432C11.1829 46.4052 10.9757 46.6376 10.9835 46.6596C11.0141 46.7454 11.9031 47.5503 12.0502 47.6254C12.5538 47.8822 13.1767 47.3829 13.0183 46.8493C12.9754 46.7048 12.0298 45.667 11.941 45.667C11.929 45.667 11.7056 45.8815 11.4443 46.1432ZM48.7577 45.7243C48.9668 45.7865 49.2708 45.9852 49.2708 46.0599C49.2708 46.0855 49.1997 46.1788 49.1127 46.2673L48.9548 46.4281L48.8192 46.3361C48.0877 45.8396 46.8476 46.9616 47.4835 47.5444C47.6966 47.7398 47.8664 47.711 48.5404 47.3654C49.614 46.8148 50.0948 46.7953 50.5141 47.2852C51.5283 48.47 49.2256 50.4563 48.1453 49.3286L48.0414 49.2202L48.208 49.0308L48.3747 48.8414L48.495 48.9426C49.1917 49.5289 50.6562 48.4726 50.195 47.7163C49.9857 47.3729 49.7101 47.3939 48.8431 47.8193C47.7523 48.3546 47.2638 48.3127 46.9167 47.6545C46.4546 46.7784 47.7463 45.424 48.7577 45.7243ZM14.6462 47.5555C14.6653 47.572 14.5162 47.7896 14.3153 48.0392C14.1142 48.2887 13.747 48.7438 13.4992 49.0503C12.6111 50.1489 12.6003 50.5903 13.4491 51.1002C14.0625 51.4689 14.2577 51.3508 15.436 49.8982C15.8828 49.3473 16.2579 48.8966 16.2698 48.8966C16.3011 48.8966 16.665 49.1809 16.667 49.207C16.6728 49.2867 14.9459 51.3353 14.7462 51.4856C14.0781 51.9879 13.187 51.7828 12.5877 50.989C12.0175 50.2337 12.1247 49.897 13.4613 48.2445L14.2657 47.2501L14.4387 47.3879C14.5338 47.4636 14.6272 47.539 14.6462 47.5555ZM45.5802 49.7424C46.1126 50.4507 46.5803 51.0637 46.6197 51.1043C46.69 51.1772 46.7041 51.1688 47.44 50.6141C47.8519 50.3039 48.2031 50.0504 48.2204 50.0508C48.2537 50.0516 48.4825 50.3586 48.4825 50.4026C48.4825 50.4297 46.535 51.9044 46.5227 51.8865C46.5186 51.8808 45.9848 51.1719 45.3364 50.3113L44.1572 48.7463L44.3592 48.5915C44.4702 48.5063 44.5726 48.4406 44.5867 48.4454C44.6008 48.4504 45.0479 49.0341 45.5802 49.7424ZM17.7159 49.8436C18.0384 50.046 18.3859 50.2748 18.4877 50.3519C19.2435 50.9241 19.0625 51.957 18.1746 52.1381L17.9471 52.1845L18.0363 52.3147C18.5236 53.0259 17.7566 54.059 16.8923 53.8552C16.5948 53.7851 15.2022 53.0037 14.9479 52.7643C14.9067 52.7254 15.9418 51.0052 16.9226 49.4822C16.9898 49.378 16.9311 49.3514 17.7159 49.8436ZM43.6642 49.5551C44.8873 49.8175 45.7118 51.4151 45.1798 52.4917C44.3379 54.195 42.0436 53.8138 41.4838 51.8777C41.107 50.5744 42.3322 49.2695 43.6642 49.5551ZM42.854 50.0672C41.8815 50.3834 41.6584 51.4085 42.3449 52.4064C43.3309 53.8395 45.335 52.8212 44.6987 51.2104C44.3469 50.3203 43.5653 49.8358 42.854 50.0672ZM17.0616 50.2726C16.9992 50.3738 16.861 50.596 16.7544 50.7662L16.5603 51.0758L17.0662 51.3851C17.871 51.8775 18.1863 51.8831 18.3847 51.4082C18.5481 51.017 18.4298 50.8579 17.5796 50.3248C17.1307 50.0432 17.1985 50.0501 17.0616 50.2726ZM20.0242 51.1887C20.1346 51.2442 20.2304 51.2944 20.2373 51.3006C20.2442 51.3067 19.9109 52.0078 19.4966 52.8587C19.0823 53.7096 18.7487 54.4113 18.7555 54.4179C18.7621 54.4247 19.1474 54.6151 19.6115 54.8412C20.0757 55.0675 20.461 55.2566 20.4676 55.2617C20.4744 55.2668 20.431 55.3668 20.3715 55.4839L20.2632 55.6968L19.1675 55.1622C18.5649 54.8682 18.0719 54.612 18.0719 54.5928C18.0719 54.5273 19.7594 51.0879 19.7917 51.0879C19.8092 51.0879 19.9139 51.1334 20.0242 51.1887ZM40.1282 51.4381C41.5628 51.7372 42.2728 53.7782 41.3092 54.8327C40.1111 56.1436 38.1607 55.3782 37.8937 53.4921C37.7201 52.2663 38.8998 51.1818 40.1282 51.4381ZM16.1396 51.7511C16.0564 51.8834 15.9002 52.1324 15.7924 52.3047L15.5964 52.6181L16.1756 52.9748C16.9605 53.4582 17.2597 53.4825 17.5349 53.0853C17.8486 52.6325 17.6868 52.3494 16.7919 51.7847C16.2695 51.4551 16.3243 51.458 16.1396 51.7511ZM39.2604 51.9702C38.3996 52.3151 38.1756 53.1094 38.6578 54.1059C39.4201 55.6815 41.6029 54.9996 41.1821 53.3172C40.9168 52.256 40.0549 51.6519 39.2604 51.9702ZM22.5973 52.3599C22.7092 52.404 22.8058 52.4452 22.8121 52.4515C22.8233 52.4626 21.4409 56.092 21.4152 56.1189C21.3933 56.1416 20.936 55.9539 20.936 55.9223C20.936 55.9059 21.2293 55.1273 21.5877 54.192C21.946 53.2565 22.257 52.4437 22.2787 52.3855C22.3261 52.2587 22.3382 52.2578 22.5973 52.3599ZM37.7036 54.3386C38.3285 56.506 38.2903 56.2507 38.0012 56.331C37.7102 56.412 37.7706 56.5081 37.4835 55.5058C37.3491 55.0364 37.2329 54.6465 37.2253 54.6388C37.2145 54.628 35.3224 55.1579 35.2865 55.1817C35.2816 55.185 35.3904 55.5822 35.5285 56.0644C35.6666 56.5466 35.772 56.9488 35.7627 56.9579C35.7536 56.9672 35.6405 57.0066 35.5118 57.0456L35.2774 57.1166L35.2023 56.8608C34.7649 55.3719 34.2014 53.3711 34.2112 53.3415C34.2181 53.3211 34.3304 53.2742 34.4607 53.2375L34.6979 53.1706L34.7318 53.2924C34.9946 54.2371 35.141 54.7019 35.1754 54.7019C35.2438 54.7019 37.0228 54.1926 37.0564 54.1633C37.0734 54.1487 36.9896 53.7954 36.8703 53.3784C36.751 52.9613 36.6592 52.6155 36.6664 52.6098C36.6969 52.586 37.1055 52.4792 37.1372 52.4869C37.1563 52.4914 37.4112 53.3247 37.7036 54.3386ZM24.8782 53.0307C25.5763 53.2099 26.0223 53.6889 26.1104 54.3545L26.1367 54.5518L25.8743 54.5404L25.6119 54.5289L25.5805 54.3944C25.5 54.0495 25.457 53.9527 25.3153 53.799C24.9839 53.4394 24.3617 53.3261 23.9183 53.5444C23.0984 53.9479 22.7524 55.5023 23.3373 56.153C23.8847 56.7618 24.9572 56.658 25.2427 55.9688C25.3012 55.8275 25.3192 55.8278 25.5738 55.9734C25.8128 56.1103 25.8113 56.1055 25.6802 56.3016C25.2325 56.9717 24.5209 57.1986 23.6949 56.9348C22.898 56.6802 22.5351 56.1376 22.5357 55.2017C22.5369 53.6566 23.5737 52.6957 24.8782 53.0307ZM33.2336 53.5823C33.5438 53.6789 33.8164 53.8863 34.0058 54.1699C34.201 54.4623 34.2041 54.4454 33.9365 54.543C33.6492 54.6477 33.6417 54.6471 33.5853 54.5112C33.2649 53.7374 31.9451 53.8269 31.5438 54.6497C31.3583 55.03 31.4058 55.9134 31.6388 56.4153C32.1293 57.4716 33.6528 57.3233 33.8666 56.1985L33.9113 55.9637L34.1612 55.9904C34.4836 56.0245 34.471 56.0095 34.4068 56.2848C34.0468 57.828 31.9814 58.0953 31.1908 56.7011C30.2295 55.0059 31.5127 53.0467 33.2336 53.5823ZM29.5779 53.7219C30.1511 53.857 30.5023 54.2074 30.5717 54.7133L30.5952 54.8855L30.3552 54.9133C30.1025 54.9427 30.0496 54.9175 30.0483 54.7676C30.0427 54.1167 28.6071 53.8746 28.2979 54.4724C28.0781 54.8974 28.285 55.0918 29.2569 55.3734C30.3002 55.6755 30.6329 55.9565 30.6405 56.5421C30.6615 58.1417 27.7124 58.152 27.523 56.5529C27.498 56.3418 27.53 56.3181 27.8424 56.3172C27.9956 56.3166 28.0025 56.3219 28.0283 56.4591C28.2186 57.4731 30.2283 57.5707 30.1144 56.5604C30.079 56.2457 29.8617 56.103 29.0768 55.8789C28.1007 55.6001 27.7878 55.3617 27.7166 54.8424C27.6061 54.036 28.536 53.4763 29.5779 53.7219Z" fill="#23408F"/>
<path fill-rule="evenodd" clip-rule="evenodd" d="M28.2792 0.0190308C25.1369 0.24364 22.6131 0.748485 20.0153 1.67241C6.91912 6.32952 -1.25346 19.2462 0.157765 33.0568C1.71953 48.3398 14.6179 59.9679 30.0092 59.9679C45.3889 59.9679 58.283 48.3345 59.841 33.053C61.5719 16.075 48.9646 1.17596 31.8996 0.0326753C31.3737 -0.00256044 28.7209 -0.0126064 28.2792 0.0190308ZM31.4316 0.839948C49.0892 1.74963 61.8366 17.8469 58.6898 35.2612C56.5565 47.0669 47.0928 56.5369 35.3084 58.6578C15.944 62.143 -1.15405 46.1714 1.02306 26.6313C2.71573 11.4415 16.1437 0.0523173 31.4316 0.839948ZM28.7885 1.55756C28.8255 1.5673 28.8861 1.5673 28.923 1.55756C28.96 1.54796 28.9297 1.54001 28.8558 1.54001C28.7817 1.54001 28.7515 1.54796 28.7885 1.55756ZM31.0568 1.55756C31.0938 1.5673 31.1544 1.5673 31.1914 1.55756C31.2283 1.54796 31.198 1.54001 31.1241 1.54001C31.05 1.54001 31.0197 1.54796 31.0568 1.55756ZM28.0255 3.08409C28.0141 3.11363 28.0117 3.20449 28.0202 3.2859C28.0349 3.4282 28.0358 3.427 28.042 3.25352L28.0484 3.07269L28.2694 3.0589L28.4906 3.04495L28.2682 3.03776C28.1084 3.03251 28.0401 3.04555 28.0255 3.08409ZM28.8668 3.44334C28.9891 3.45099 29.1794 3.45099 29.2897 3.44319C29.3999 3.43554 29.2998 3.42925 29.0672 3.42925C28.8347 3.4294 28.7444 3.43569 28.8668 3.44334ZM28.484 4.1647C28.4841 4.31269 28.491 4.36847 28.4994 4.2887C28.5077 4.20893 28.5075 4.08778 28.4991 4.01956C28.4906 3.95133 28.4838 4.01656 28.484 4.1647ZM28.0613 5.37561C28.0613 5.53424 28.0682 5.59917 28.0764 5.51985C28.0847 5.44053 28.0847 5.31083 28.0764 5.23152C28.0682 5.1522 28.0613 5.21712 28.0613 5.37561ZM40.7649 5.4029C40.8127 5.41204 40.8818 5.41174 40.9186 5.40215C40.9555 5.3924 40.9163 5.3849 40.8316 5.38535C40.747 5.3858 40.7171 5.3936 40.7649 5.4029ZM28.6531 5.94163C28.7213 5.95017 28.8425 5.95032 28.9222 5.94193C29.002 5.93368 28.9461 5.92663 28.7981 5.92648C28.6501 5.92633 28.5849 5.93323 28.6531 5.94163ZM36.3633 6.06773C36.3633 6.16279 36.3708 6.20177 36.3799 6.15424C36.3891 6.10656 36.3891 6.02874 36.3799 5.98121C36.3708 5.93368 36.3633 5.97251 36.3633 6.06773ZM37.3235 7.09376C37.3605 7.10351 37.4211 7.10351 37.458 7.09376C37.495 7.08416 37.4647 7.07622 37.3908 7.07622C37.3167 7.07622 37.2864 7.08416 37.3235 7.09376ZM29.0672 7.30053C17.2555 7.77028 7.76628 17.2977 7.3301 29.1257C6.78957 43.7831 20.0761 55.0894 34.4689 52.2194C43.4131 50.4359 50.464 43.385 52.2475 34.4409C55.124 20.0158 43.7647 6.71606 29.0672 7.30053ZM31.4546 8.14648C42.86 8.91252 51.7823 18.3507 51.8596 29.7311L51.8656 30.6155L50.4048 30.6354L48.9438 30.6552L50.3952 30.6642L51.8464 30.673L51.846 30.9711C51.8415 34.4092 50.3776 38.8665 48.1747 42.1492C39.2454 55.4562 19.4705 54.9417 11.2204 41.1881C9.37018 38.1034 8.13828 33.9492 8.13363 30.7789L8.13348 30.673L8.54671 30.6649L8.95994 30.6567L8.54116 30.6444L8.12238 30.632L8.14532 29.5088C8.37893 18.0671 17.1799 8.93156 28.7404 8.13074C29.1881 8.0997 30.9074 8.1096 31.4546 8.14648ZM30.5767 15.2184C28.0802 15.5049 25.9767 16.6428 24.4959 18.508C24.3142 18.737 24.1654 18.9427 24.1654 18.9652C24.1654 18.991 24.5121 19.0303 25.1111 19.0722C25.6314 19.1087 26.4256 19.1763 26.8762 19.2225L27.6954 19.3063L28.1123 18.9962C31.5763 16.4194 36.5808 16.9178 39.2559 20.1061C39.4142 20.2947 39.5438 20.4353 39.5438 20.4184C39.5438 20.2463 38.834 19.0504 38.3966 18.4857C36.6551 16.2369 33.433 14.8907 30.5767 15.2184ZM21.5976 19.6042C17.8746 19.7554 15.6655 20.4707 15.7537 21.4965C15.8628 22.7655 18.1271 23.9127 22.1418 24.7327C22.9112 24.8899 22.804 24.8109 22.9152 25.3033C23.4874 27.8354 25.2883 30.056 27.6173 31.101L27.8638 31.2116L27.3791 30.7458C24.6712 28.1439 24.1597 24.284 26.1064 21.1422L26.3304 20.7807L27.199 20.8061C32.5259 20.9627 38.9013 22.1286 42.1388 23.5383L42.3695 23.6388L42.2542 23.5385C39.7227 21.3365 29.0404 19.3018 21.5976 19.6042ZM23.1658 20.903C23.1658 20.9214 23.141 21.0069 23.1106 21.0928C22.8034 21.9635 22.6399 23.6118 22.7734 24.4928C22.7933 24.624 22.7927 24.714 22.772 24.714C22.5833 24.714 21.0503 24.2072 20.5756 23.988C19.4623 23.4736 18.8082 22.6404 19.0756 22.0769C19.293 21.6185 20.31 21.2234 21.8339 21.0054C22.7725 20.8712 23.1658 20.8409 23.1658 20.903ZM40.8033 26.7403C40.8511 26.7496 40.9204 26.7491 40.9571 26.7395C40.9938 26.7299 40.9547 26.7224 40.8701 26.7229C40.7856 26.7233 40.7554 26.7311 40.8033 26.7403ZM41.9566 26.7403C42.0044 26.7496 42.0737 26.7491 42.1104 26.7395C42.1472 26.7299 42.108 26.7224 42.0235 26.7229C41.9389 26.7233 41.9089 26.7311 41.9566 26.7403ZM40.2253 28.471C40.2935 28.4794 40.4146 28.4796 40.4944 28.4713C40.5742 28.4629 40.5184 28.456 40.3704 28.4559C40.2223 28.4557 40.157 28.4625 40.2253 28.471ZM41.2065 28.4712C41.2858 28.4796 41.4156 28.4796 41.4949 28.4712C41.5741 28.4629 41.5093 28.4562 41.3507 28.4562C41.1921 28.4562 41.1273 28.4629 41.2065 28.4712ZM1.56809 28.8661C1.56809 28.9402 1.57604 28.9705 1.58564 28.9334C1.59538 28.8964 1.59538 28.8358 1.58564 28.7988C1.57604 28.7619 1.56809 28.7922 1.56809 28.8661ZM58.4367 29.9619C58.4367 30.3636 58.4424 30.5228 58.4493 30.3154C58.4564 30.1082 58.4562 29.7796 58.4493 29.5849C58.4424 29.3905 58.4367 29.56 58.4367 29.9619ZM15.5246 29.354C15.5616 29.3636 15.6222 29.3636 15.6592 29.354C15.6963 29.3443 15.666 29.3365 15.5919 29.3365C15.518 29.3365 15.4877 29.3443 15.5246 29.354ZM18.0621 29.354C18.099 29.3636 18.1596 29.3636 18.1966 29.354C18.2337 29.3443 18.2034 29.3365 18.1293 29.3365C18.0554 29.3365 18.0251 29.3443 18.0621 29.354ZM10.0653 30.047C10.1235 30.0559 10.2187 30.0559 10.2767 30.047C10.3349 30.0382 10.2874 30.031 10.171 30.031C10.0548 30.031 10.0071 30.0382 10.0653 30.047ZM13.7562 30.047C13.8142 30.0559 13.9094 30.0559 13.9676 30.047C14.0258 30.0382 13.9781 30.031 13.8619 30.031C13.7456 30.031 13.698 30.0382 13.7562 30.047ZM10.7958 30.7006C10.854 30.7095 10.949 30.7095 11.0072 30.7006C11.0654 30.6918 11.0179 30.6846 10.9015 30.6846C10.7852 30.6846 10.7376 30.6918 10.7958 30.7006ZM46.8971 30.7006C46.9554 30.7095 47.0419 30.7093 47.0893 30.7002C47.1365 30.691 47.0887 30.6838 46.983 30.6841C46.8773 30.6844 46.8386 30.6918 46.8971 30.7006ZM12.1995 30.7387C12.2474 30.7479 12.3165 30.7476 12.3534 30.738C12.3901 30.7284 12.351 30.7209 12.2664 30.7212C12.1818 30.7216 12.1517 30.7296 12.1995 30.7387ZM45.5322 30.7387C45.58 30.7479 45.6492 30.7476 45.6859 30.738C45.7226 30.7284 45.6835 30.7209 45.5989 30.7212C45.5144 30.7216 45.4844 30.7296 45.5322 30.7387ZM13.2563 30.7765C13.2933 30.7861 13.3539 30.7861 13.3909 30.7765C13.4278 30.7668 13.3977 30.759 13.3236 30.759C13.2496 30.759 13.2193 30.7668 13.2563 30.7765ZM1.56809 31.096C1.56809 31.1699 1.57604 31.2002 1.58564 31.1633C1.59538 31.1263 1.59538 31.0657 1.58564 31.0287C1.57604 30.9917 1.56809 31.0219 1.56809 31.096ZM14.3224 35.796C14.2991 35.8858 14.2714 35.9897 14.2606 36.0268C14.2438 36.0851 14.2694 36.0939 14.4545 36.0939C14.6558 36.0939 14.669 36.0881 14.6915 35.9882C14.7044 35.9301 14.7293 35.8263 14.7467 35.7576L14.7783 35.6326H14.5714H14.3647L14.3224 35.796ZM17.6458 35.7768C17.6327 35.835 17.6081 35.9376 17.5912 36.0049C17.5519 36.1602 17.5647 36.1709 17.789 36.1709C17.9596 36.1709 17.9759 36.1626 17.9978 36.0652C18.0109 36.007 18.0355 35.9044 18.0524 35.8371C18.0915 35.6818 18.0789 35.6711 17.8546 35.6711C17.684 35.6711 17.6677 35.6794 17.6458 35.7768ZM35.4032 36.1839C35.2074 36.303 35.2018 36.3114 35.1341 36.5938L35.0648 36.8822L34.912 36.8846C34.7663 36.887 34.757 36.8946 34.7126 37.048L34.666 37.2089H34.8306H34.9951L34.8095 38.0259C34.5964 38.9633 34.589 39.0477 34.7091 39.1603C34.9871 39.4208 35.3951 39.3776 35.4468 39.0824L35.4722 38.9375L35.3231 38.9612C35.2125 38.9789 35.1579 38.9689 35.1111 38.9221C35.0386 38.8497 35.0317 38.8975 35.2554 37.9202L35.4137 37.2281L35.5938 37.2374C35.7863 37.2471 35.8161 37.2219 35.8676 37.0071C35.8926 36.9024 35.8908 36.9014 35.6999 36.9014C35.4737 36.9014 35.4773 36.9146 35.5836 36.4712C35.6989 35.9903 35.705 36.0002 35.4032 36.1839ZM40.5626 36.1421C40.5533 36.1685 40.4912 36.4324 40.4245 36.7283C40.3578 37.0243 40.299 37.2713 40.2941 37.2771C40.2891 37.283 40.2172 37.2197 40.1341 37.1366C39.5288 36.5313 38.5341 37.2147 38.4423 38.2991C38.3639 39.2265 39.1319 39.73 39.7796 39.1755C39.9006 39.0719 39.933 39.0575 39.9168 39.1145C39.9053 39.1554 39.8843 39.2287 39.8703 39.2775C39.8456 39.3631 39.8519 39.3658 40.048 39.3544L40.2513 39.3427L40.6068 37.7856C40.8025 36.9293 40.9634 36.1983 40.9645 36.1613C40.9667 36.0782 40.5911 36.0604 40.5626 36.1421ZM46.8869 36.3763C46.6764 36.501 46.6752 36.503 46.6029 36.7976L46.5305 37.0936H46.3675C46.2158 37.0936 46.2029 37.1018 46.1805 37.2137C46.1437 37.3978 46.1459 37.4011 46.3128 37.4011C46.444 37.4011 46.4659 37.4121 46.4486 37.4684C46.3957 37.6412 46.0795 39.0954 46.0795 39.1657C46.0795 39.3991 46.628 39.6336 46.8341 39.4884C46.9395 39.4143 46.9382 39.1394 46.8325 39.1596C46.4912 39.2248 46.4815 39.149 46.7056 38.17L46.8685 37.4588L47.0686 37.4473C47.2635 37.4359 47.2698 37.4318 47.3084 37.2935C47.3648 37.0904 47.3672 37.0936 47.156 37.0936C47.0503 37.0936 46.9638 37.0778 46.9638 37.0585C46.9638 37.0392 47.0051 36.8489 47.0554 36.6357C47.1058 36.4223 47.1361 36.2484 47.1228 36.2493C47.1094 36.25 47.0033 36.3072 46.8869 36.3763ZM12.0742 36.4872C11.1855 36.8039 10.8511 38.2354 11.5509 38.7272C11.8019 38.9036 12.2385 38.8987 12.4969 38.7165C12.6339 38.62 12.6714 38.6065 12.6561 38.659C12.6451 38.6966 12.6161 38.8053 12.5915 38.9004C12.4816 39.3242 12.303 39.4772 11.9176 39.4772C11.6365 39.4772 11.4782 39.3653 11.4782 39.1665C11.4782 39.1145 11.4513 39.0927 11.3869 39.0927C11.3366 39.0927 11.2416 39.0819 11.1754 39.0687C10.8846 39.0106 11.0634 39.5526 11.3879 39.7123C12.0229 40.0247 12.7808 39.716 12.9758 39.0656C13.0525 38.8092 13.5542 36.6327 13.5542 36.5561C13.5542 36.5345 13.4694 36.5169 13.3655 36.5169H13.1765L13.1506 36.6706C13.119 36.8583 13.1268 36.8582 12.9416 36.6732C12.7251 36.4565 12.3723 36.3809 12.0742 36.4872ZM14.1492 36.5649C14.1214 36.64 13.6311 38.8099 13.6311 38.8579C13.6311 38.8837 13.7108 38.9005 13.833 38.9005L14.0349 38.9004L14.2961 37.7374C14.4399 37.0979 14.5567 36.5616 14.5557 36.5457C14.5525 36.495 14.1684 36.5132 14.1492 36.5649ZM14.8999 36.5495C14.8999 36.5655 14.9776 37.1053 15.0727 37.7491C15.1679 38.393 15.2457 38.9249 15.2457 38.9312C15.2458 38.9375 15.3524 38.9375 15.4826 38.9312L15.7192 38.9197L16.4052 37.7718C17.1919 36.4554 17.1526 36.5553 16.8836 36.5553H16.676L16.1959 37.3915C15.9318 37.8514 15.6817 38.2956 15.6399 38.3787L15.564 38.5297L15.5378 38.3018C15.5013 37.9868 15.3145 36.5755 15.3085 36.5703C15.2815 36.5472 14.8999 36.5277 14.8999 36.5495ZM19.368 36.6097C19.2774 36.6391 19.1108 36.7331 18.9978 36.8186L18.7921 36.9739L18.825 36.8319C18.8786 36.6012 18.8744 36.5938 18.689 36.5938C18.4746 36.5938 18.5226 36.4719 18.2283 37.7641C17.9224 39.1073 17.9278 38.9842 18.1763 38.9698L18.377 38.9582L18.533 38.2854C18.785 37.197 19.0843 36.8195 19.616 36.9192C19.8967 36.9718 19.8997 37.0291 19.6747 38.031C19.4302 39.12 19.43 39.0226 19.6764 39.0083L19.8778 38.9966L20.0614 38.2085C20.3256 37.076 20.3195 36.8936 20.0103 36.6627C19.8842 36.5685 19.5732 36.5429 19.368 36.6097ZM17.1952 37.7568C17.0516 38.3964 16.9348 38.9336 16.9357 38.9506C16.9367 38.9675 17.0283 38.9762 17.1391 38.9698L17.3408 38.9582L17.5787 37.9202C17.7096 37.3492 17.8281 36.8172 17.8419 36.7379L17.8669 36.5938H17.6618L17.4565 36.594L17.1952 37.7568ZM21.5193 36.6508C20.6753 36.9143 20.2866 38.215 20.8759 38.8041C21.1638 39.092 21.5599 39.1206 21.9156 38.8794C22.0934 38.7587 22.0924 38.7575 22.0255 39.0158C21.9007 39.4985 21.7529 39.6309 21.3385 39.631C21.0662 39.631 20.9513 39.5668 20.9054 39.389C20.8758 39.2742 20.8602 39.2644 20.6741 39.2455L20.4745 39.2251L20.4747 39.38C20.4751 39.7715 20.76 39.9577 21.3589 39.9577C22.1954 39.9577 22.2736 39.8408 22.7068 37.9431C23.0268 36.5409 23.019 36.6706 22.7837 36.6706H22.5938L22.5677 36.8447L22.5416 37.0188L22.359 36.848C22.0976 36.6034 21.8543 36.5463 21.5193 36.6508ZM25.3119 36.7313C24.7523 36.9036 24.2957 37.7704 24.4314 38.4033C24.6476 39.4115 26.032 39.4226 26.5106 38.4199C27.0204 37.3516 26.3527 36.4111 25.3119 36.7313ZM27.2042 37.67C27.0676 38.2873 27.0075 38.6371 27.0222 38.7276C27.1107 39.2734 27.8419 39.361 28.3511 38.8867L28.4808 38.766L28.4546 38.9128C28.4402 38.9936 28.4184 39.0855 28.4065 39.1169C28.3885 39.1638 28.421 39.1719 28.5895 39.1621L28.7945 39.1504L29.054 38.0163C29.1966 37.3924 29.3143 36.8604 29.3152 36.834C29.3166 36.8014 29.2515 36.7861 29.1125 36.7861H28.9078L28.7587 37.4492C28.5355 38.4417 28.3222 38.7779 27.8725 38.8453C27.3984 38.9164 27.3714 38.7945 27.6181 37.6959C27.7281 37.206 27.8181 36.7922 27.8179 36.7765C27.8178 36.7606 27.7256 36.7475 27.613 36.7475H27.4083L27.2042 37.67ZM30.7446 36.7969C30.6732 36.8196 30.5282 36.926 30.4222 37.0332C30.3014 37.1554 30.2378 37.1994 30.2519 37.1513C30.264 37.1089 30.2859 37.0084 30.3002 36.9279L30.3261 36.7814L30.1418 36.7933L29.9574 36.8053L29.6971 37.9394C29.5539 38.5631 29.4358 39.0935 29.4346 39.1179C29.4334 39.144 29.5109 39.1677 29.624 39.1755L29.8156 39.1888L29.915 38.7468C30.2039 37.4623 30.5533 36.9651 30.9993 37.2039C31.0583 37.2354 31.0829 37.2341 31.0976 37.1985C31.1084 37.1726 31.1451 37.0856 31.1794 37.0056L31.2417 36.86L31.1073 36.8038C30.9545 36.7399 30.9245 36.7393 30.7446 36.7969ZM12.6739 36.8733C13.2092 37.2309 12.8414 38.4429 12.1781 38.5066C11.6926 38.5532 11.4728 38.1066 11.6693 37.4725C11.8442 36.9086 12.3105 36.6304 12.6739 36.8733ZM33.2733 36.8274C32.8673 36.8904 32.6235 37.1432 32.6235 37.5017C32.6235 37.7904 32.7851 37.9533 33.3155 38.1991C33.7113 38.3825 33.7863 38.4573 33.7698 38.6527C33.7285 39.1422 32.7782 39.0567 32.7112 38.5574L32.6902 38.4008H32.4839H32.2774L32.2783 38.5448C32.2836 39.4344 33.9632 39.5868 34.1969 38.7189C34.2928 38.363 34.1215 38.1373 33.5264 37.8355C33.0526 37.5953 32.9649 37.5071 33.0384 37.3456C33.1883 37.0167 33.819 37.0835 33.9603 37.4435C34.037 37.6388 34.392 37.6819 34.392 37.496C34.392 37.051 33.8645 36.7358 33.2733 36.8274ZM36.3142 36.9221C36.3142 36.9335 36.2277 37.3221 36.122 37.7856C35.9085 38.7216 35.8931 38.8975 36.0079 39.0858C36.2325 39.4541 36.8167 39.4349 37.2617 39.0444C37.4199 38.9056 37.4122 38.8864 37.3313 39.2178C37.2989 39.3505 37.6739 39.3883 37.7132 39.2562C37.7243 39.2191 37.8388 38.7218 37.9676 38.1508C38.0966 37.5798 38.2117 37.0738 38.2236 37.0263C38.2438 36.9444 38.2335 36.9397 38.0324 36.9397H37.8199L37.7364 37.3146C37.4608 38.551 37.37 38.7473 36.9915 38.9234C36.775 39.0244 36.6225 39.039 36.4943 38.9717C36.3057 38.8723 36.3076 38.8239 36.545 37.7781C36.6507 37.312 36.7372 36.9242 36.7372 36.9161C36.7372 36.908 36.642 36.9014 36.5258 36.9014C36.4095 36.9014 36.3142 36.9107 36.3142 36.9221ZM22.0271 36.9931C22.7471 37.2939 22.1466 38.8988 21.398 38.6747C21.033 38.5652 20.9077 38.0252 21.1304 37.5217C21.3403 37.0471 21.6788 36.8475 22.0271 36.9931ZM42.0709 36.9817C41.0427 37.1432 40.5706 38.7865 41.4042 39.3019C41.904 39.6108 42.625 39.3943 42.9514 38.8374C43.0697 38.6356 43.0736 38.6426 42.8301 38.6134C42.6462 38.5912 42.6357 38.5952 42.5618 38.7134C42.1902 39.3079 41.4519 39.1878 41.4179 38.5273L41.4084 38.343L42.2716 38.3327C43.2527 38.321 43.1946 38.3433 43.1955 37.9751C43.1972 37.2837 42.7367 36.8771 42.0709 36.9817ZM25.9993 37.0921C26.2685 37.2561 26.3412 37.7206 26.1688 38.1731C25.7839 39.1833 24.6689 38.9783 24.8587 37.9323C24.9866 37.2269 25.5453 36.8151 25.9993 37.0921ZM44.7774 37.0759C44.7063 37.1068 44.5607 37.1961 44.4541 37.2744L44.2604 37.4167L44.2876 37.3032C44.3024 37.2408 44.3237 37.1594 44.3346 37.1224C44.3519 37.0646 44.3274 37.055 44.1625 37.055C44.0127 37.055 43.9656 37.07 43.9497 37.1224C43.9272 37.1969 43.4268 39.3984 43.4268 39.4232C43.4268 39.4317 43.522 39.4388 43.6382 39.4388C43.7545 39.4388 43.8497 39.4296 43.8497 39.4184C43.8497 39.2845 44.1788 38.0099 44.2489 37.8727C44.5233 37.3348 45.3106 37.1453 45.3106 37.617C45.3106 37.7221 45.0286 39.0599 44.9419 39.3662C44.9222 39.4359 45.2587 39.506 45.3199 39.4449C45.3736 39.3913 45.7316 37.7815 45.7327 37.5894C45.7349 37.1486 45.2323 36.8784 44.7774 37.0759ZM48.1827 37.1077C47.6495 37.2576 47.4715 37.8904 47.8735 38.2066C47.9306 38.2514 48.1254 38.3576 48.3061 38.4423C48.7121 38.6326 48.8093 38.7186 48.8093 38.8881C48.8093 39.4041 47.8044 39.3319 47.7348 38.8107C47.7222 38.7164 47.6937 38.6522 47.6654 38.6545C47.639 38.6566 47.546 38.6609 47.4589 38.664L47.3003 38.6699L47.3177 38.8785C47.3907 39.7594 49.1231 39.8028 49.2219 38.9264C49.2639 38.5535 49.1403 38.3939 48.6019 38.1252C48.0105 37.8302 47.9195 37.7019 48.1585 37.5007C48.4314 37.2711 49.0015 37.4566 49.0015 37.7749C49.0015 37.8557 49.0183 37.8625 49.218 37.8625H49.4345L49.4135 37.7064C49.3517 37.2456 48.7437 36.9498 48.1827 37.1077ZM39.9177 37.3476C40.4254 37.6689 40.0107 38.9932 39.3862 39.045C38.8641 39.0884 38.6813 38.4537 39.019 37.7703C39.2538 37.2953 39.5874 37.1384 39.9177 37.3476ZM42.5013 37.3531C42.684 37.4462 42.7706 37.5798 42.7979 37.8097L42.8211 38.0058L42.1724 37.9869C41.4291 37.9653 41.4789 37.9788 41.5455 37.8178C41.7156 37.407 42.1719 37.1852 42.5013 37.3531ZM22.5899 41.9474C22.3924 42.8196 22.2233 43.5549 22.2137 43.5813C22.2012 43.6161 22.2553 43.6294 22.4093 43.6294C22.5792 43.6294 22.6263 43.6158 22.6416 43.5621C22.6522 43.5251 22.7154 43.2526 22.7819 42.9565C23.016 41.915 23.1668 41.6775 23.651 41.5871C23.9389 41.5333 24.0869 41.6237 24.0879 41.8539C24.0884 41.9572 23.7945 43.3492 23.7191 43.6005C23.7015 43.659 23.727 43.6678 23.9122 43.6678C24.1017 43.6678 24.1278 43.6582 24.1458 43.5813C24.3728 42.6131 24.5113 41.9344 24.5112 41.7909C24.5107 41.2108 23.8287 41.0304 23.2644 41.4613C23.1251 41.5676 23.0857 41.5841 23.1021 41.5294C23.1347 41.4193 23.358 40.4275 23.358 40.3924C23.358 40.3753 23.2659 40.3615 23.1533 40.3615H22.9487L22.5899 41.9474ZM21.8321 40.5282C21.637 40.647 21.6307 40.6566 21.5611 40.9382L21.4899 41.2265L21.3325 41.2381C21.1843 41.249 21.1726 41.2587 21.1364 41.4015L21.0978 41.5532H21.2605H21.4232L21.2388 42.3511C21.0219 43.2891 21.013 43.4053 21.1479 43.5305C21.3608 43.7276 21.8568 43.7077 21.8592 43.5017C21.8594 43.4768 21.8697 43.4189 21.882 43.373C21.9027 43.2957 21.8935 43.2912 21.7538 43.3099C21.6448 43.3245 21.5857 43.3126 21.54 43.2667C21.467 43.1937 21.4608 43.2367 21.683 42.2645L21.8412 41.5726L22.0189 41.5849C22.2128 41.5984 22.2366 41.5795 22.2825 41.3757L22.3119 41.2457H22.1237C21.9025 41.2457 21.906 41.2596 22.0124 40.8035C22.123 40.3294 22.1331 40.3449 21.8321 40.5282ZM36.6603 40.6118C36.6603 40.6226 36.496 41.3568 36.2951 42.2434C36.0941 43.1298 35.9298 43.865 35.9298 43.8768C35.9298 43.916 36.3091 43.8995 36.334 43.8593C36.354 43.827 37.0831 40.6635 37.0831 40.6092C37.0831 40.5998 36.9881 40.5921 36.8717 40.5921C36.7555 40.5921 36.6603 40.601 36.6603 40.6118ZM39.2163 40.6786C39.2069 40.705 39.1461 40.9602 39.0817 41.2457C39.017 41.5312 38.9566 41.7868 38.9473 41.8138C38.9367 41.8446 38.8787 41.8059 38.7923 41.7102C38.2735 41.1359 37.3194 41.6592 37.1179 42.6287C36.9052 43.6528 37.6664 44.3338 38.3861 43.7632C38.5914 43.6006 38.5854 43.6009 38.5414 43.754C38.4891 43.9368 38.4893 43.937 38.6953 43.937C38.843 43.937 38.8893 43.922 38.9044 43.8696C38.944 43.7324 39.6207 40.7115 39.6207 40.6717C39.6207 40.6121 39.2381 40.6187 39.2163 40.6786ZM25.8852 41.2857C24.8217 41.5498 24.4668 43.237 25.3862 43.6581C25.9011 43.8938 26.5793 43.6347 26.8535 43.0973L26.9305 42.9463L26.8118 42.9226C26.5782 42.876 26.5294 42.8932 26.4075 43.0661C26.0131 43.6257 25.2804 43.4359 25.2804 42.774V42.6083L26.1589 42.6235L27.0374 42.6386L27.0618 42.49C27.1921 41.7015 26.61 41.1058 25.8852 41.2857ZM28.8297 41.5415C28.8422 41.6432 28.8902 42.1761 28.9363 42.7259C28.9824 43.2757 29.022 43.7281 29.0244 43.7312C29.0268 43.7344 29.1239 43.7429 29.2403 43.7504L29.4517 43.7639L29.6333 43.3987C29.7333 43.1978 29.9256 42.7962 30.061 42.5064L30.3071 41.9792L30.3306 42.3909C30.3437 42.6175 30.3654 43.0234 30.3792 43.293L30.4041 43.7831L30.6199 43.783L30.8358 43.7828L31.422 42.6355C32.0944 41.3199 32.0689 41.3995 31.8164 41.3995H31.6244L31.3683 41.9089C31.2276 42.1891 31.0308 42.5961 30.9313 42.8133L30.7502 43.2084L30.7253 42.7172C30.7115 42.4472 30.6896 42.0401 30.6765 41.8128L30.6528 41.3995H30.4248H30.1967L29.9057 42.005C29.7456 42.338 29.558 42.7464 29.489 42.9124L29.3634 43.2142L29.3379 42.8355C29.3238 42.6272 29.2918 42.2146 29.2667 41.9185L29.2211 41.3803L29.0139 41.3685L28.8068 41.3567L28.8297 41.5415ZM32.8262 41.4631C32.3191 41.6427 31.9278 42.3509 31.9795 42.9953C32.078 44.2239 33.7767 44.1545 34.1622 42.9061C34.4779 41.884 33.7767 41.1266 32.8262 41.4631ZM35.6607 41.5147C35.5867 41.5592 35.4629 41.6666 35.3857 41.7531L35.2453 41.9105L35.2957 41.6934L35.3462 41.4765H35.1582C34.9949 41.4765 34.9675 41.4879 34.9495 41.563C34.8976 41.7798 34.4304 43.8395 34.4304 43.851C34.4304 43.8582 34.521 43.8588 34.6316 43.8524L34.8327 43.8408L34.9777 43.2065C35.2245 42.126 35.5767 41.6744 36.0151 41.8762C36.1022 41.9162 36.2798 41.5804 36.2088 41.5094C36.1234 41.4238 35.8065 41.427 35.6607 41.5147ZM26.3989 41.6513C26.5568 41.733 26.664 41.9225 26.6642 42.1204L26.6643 42.2837H26.0103H25.3561L25.4123 42.1492C25.5991 41.7023 26.0538 41.4729 26.3989 41.6513ZM33.5794 41.8113C34.0649 42.1669 33.7584 43.3284 33.1294 43.5168C32.547 43.6912 32.2359 43.1262 32.4905 42.3564C32.6599 41.8444 33.233 41.5576 33.5794 41.8113ZM38.5093 41.8819C39.088 42.1812 38.6557 43.6258 37.9867 43.6285C37.6683 43.6299 37.4878 43.3525 37.5139 42.9019C37.5566 42.1632 38.0585 41.6489 38.5093 41.8819ZM18.9456 51.2032C18.9456 51.2772 18.9535 51.3075 18.9633 51.2705C18.9729 51.2334 18.9729 51.173 18.9633 51.136C18.9535 51.0989 18.9456 51.1292 18.9456 51.2032ZM43.4749 53.1135C43.5118 53.1233 43.5723 53.1233 43.6094 53.1135C43.6464 53.1039 43.6161 53.096 43.5421 53.096C43.4681 53.096 43.4379 53.1039 43.4749 53.1135ZM25.7312 54.5374C25.7995 54.5457 25.9206 54.5459 26.0004 54.5377C26.0801 54.5293 26.0242 54.5224 25.8762 54.5222C25.7282 54.5221 25.6629 54.5288 25.7312 54.5374ZM30.1726 54.9206C30.2096 54.9302 30.27 54.9302 30.3071 54.9206C30.3441 54.9109 30.3138 54.9029 30.2398 54.9029C30.1658 54.9029 30.1355 54.9109 30.1726 54.9206ZM31.4042 55.3746C31.4045 55.4803 31.412 55.519 31.4208 55.4605C31.4297 55.4022 31.4294 55.3157 31.4202 55.2683C31.4111 55.2211 31.4039 55.2689 31.4042 55.3746ZM29.6343 58.4212C29.8405 58.4281 30.1778 58.4281 30.384 58.4212C30.5902 58.4143 30.4215 58.4088 30.0092 58.4088C29.5968 58.4088 29.4281 58.4143 29.6343 58.4212Z" fill="#00AEEF"/>
<path fill-rule="evenodd" clip-rule="evenodd" d="M28.4327 0.843606C11.5402 1.74204 -1.05674 16.8414 1.061 33.6525C3.03674 49.3359 17.2573 60.6128 33.0078 58.9866C46.3749 57.6065 57.105 47.2193 58.9002 33.9217C59.2939 31.0042 59.2216 27.5656 58.7074 24.7632C56.0506 10.2869 43.1102 0.0628729 28.4327 0.843606ZM32.4311 1.62464C48.8633 3.17321 60.4738 17.8133 58.1511 34.0562C56.4034 46.2794 46.8215 56.0478 34.6225 58.0431C17.4996 60.8439 1.88671 47.8329 1.57154 30.5001C1.294 15.2351 12.9497 2.60074 28.2597 1.57066C29.0182 1.51968 31.6834 1.55417 32.4311 1.62464ZM28.2693 3.05671L28.0482 3.0726V3.77582C28.0482 4.16251 28.0596 4.89691 28.0736 5.40775L28.0991 6.33678L28.6023 6.33573C30.2553 6.33228 30.7765 5.93614 30.7765 4.68355C30.7765 3.33739 30.136 2.92176 28.2693 3.05671ZM31.8125 3.07845C31.7415 3.27502 31.4199 6.2843 31.4678 6.30529C31.5294 6.33228 33.8214 6.61431 33.8351 6.59647C33.8393 6.59107 33.8533 6.50621 33.8662 6.408C33.8939 6.19538 34.0146 6.23152 32.7772 6.08233C32.3013 6.02505 31.9077 5.97512 31.9023 5.97137C31.8547 5.93884 32.029 4.87607 32.0816 4.87742C32.1152 4.87832 32.5184 4.9269 32.9776 4.98553C33.8993 5.10308 33.8536 5.11057 33.8536 4.84203V4.69914L32.9806 4.59358C32.5004 4.53571 32.1002 4.48083 32.0912 4.47183C32.0728 4.45324 32.184 3.53381 32.2077 3.51012C32.2161 3.50173 32.6374 3.54581 33.1441 3.60833C33.6506 3.67086 34.0761 3.72199 34.0894 3.72214C34.1185 3.72244 34.1748 3.37713 34.1496 3.35209C34.1131 3.31565 31.8237 3.04756 31.8125 3.07845ZM25.6647 3.38717C25.5483 3.40682 25.4483 3.42736 25.4425 3.43276C25.427 3.447 24.7039 6.84987 24.7142 6.85976C24.7241 6.86951 25.1409 6.79589 25.1552 6.78195C25.1604 6.77685 25.2097 6.54909 25.2649 6.2759C25.3853 5.67854 25.2663 5.77391 26.0487 5.64796L26.709 5.5418L26.7591 5.62202C26.7865 5.66625 26.908 5.87242 27.029 6.08023L27.2489 6.45823L27.4468 6.43154C27.5555 6.41699 27.6643 6.39405 27.6882 6.38056C27.7256 6.35942 26.0062 3.46094 25.9067 3.37713C25.8899 3.36303 25.7809 3.36753 25.6647 3.38717ZM29.586 3.4563C30.5101 3.66756 30.6037 5.56579 29.7043 5.85292C29.4461 5.93539 28.5544 5.97782 28.5324 5.90885C28.5233 5.87991 28.5048 5.31674 28.4913 4.65746L28.4669 3.45884L28.5747 3.44265C28.7945 3.40951 29.4185 3.41791 29.586 3.4563ZM26.2758 4.77336C26.4082 5.00247 26.5109 5.19544 26.5039 5.20189C26.4857 5.21913 25.4631 5.37927 25.4515 5.36682C25.4462 5.36097 25.5002 5.06229 25.5717 4.70274C25.6431 4.34334 25.7021 3.98003 25.7029 3.89547L25.7044 3.74163L25.8698 4.04916C25.9606 4.21829 26.1434 4.54425 26.2758 4.77336ZM22.3032 4.14781C22.0789 4.20374 21.0002 4.53511 20.9509 4.56315C20.9179 4.58189 21.7177 7.31453 21.8598 7.66914C21.882 7.72446 23.091 7.35936 23.3853 7.20852C23.9035 6.94283 24.0707 6.6437 24.0659 5.99072C24.0567 4.75252 23.252 3.91106 22.3032 4.14781ZM36.9647 4.19475C35.8547 4.66256 35.5508 6.52765 36.4802 7.16804C37.2062 7.66839 38.1732 7.53374 38.5555 6.87896L38.6248 6.76035L38.4467 6.64745L38.2687 6.53455L38.0315 6.7758C37.5458 7.26985 36.7847 7.15005 36.4684 6.5299C36.2627 6.12656 36.3942 5.36907 36.7555 4.87682C37.2623 4.1865 38.382 4.42565 38.4993 5.24912L38.5254 5.43324L38.7518 5.44494L38.9781 5.45663L38.9541 5.25302C38.8529 4.39881 37.8042 3.84104 36.9647 4.19475ZM22.9319 4.60513C23.5144 4.90231 23.8467 6.07753 23.4973 6.60547C23.3634 6.80789 22.2835 7.2745 22.1826 7.17359C22.0988 7.08977 21.4437 4.80035 21.5028 4.7975C21.5187 4.79675 21.722 4.73708 21.9546 4.66481C22.4482 4.51127 22.716 4.49492 22.9319 4.60513ZM40.3834 5.46548C39.2367 5.89266 38.7996 7.55743 39.6325 8.32512C40.7917 9.39359 42.5333 8.44012 42.4144 6.80219C42.3469 5.87436 41.2405 5.14611 40.3834 5.46548ZM18.11 5.76656C18.0254 5.81064 17.9509 5.85127 17.9443 5.85682C17.9301 5.86912 19.3149 8.72666 19.3558 8.76924C19.3995 8.81497 19.7503 8.64599 19.7367 8.58601C19.7068 8.45647 18.3364 5.68544 18.3022 5.68589C18.2811 5.68634 18.1945 5.72263 18.11 5.76656ZM41.2819 5.87466C42.1026 6.18189 42.2236 7.22652 41.5299 8.01475C40.8462 8.79143 39.6397 8.33202 39.6397 7.29504C39.6397 6.31219 40.4888 5.57764 41.2819 5.87466ZM16.7259 6.47547C16.599 6.55164 16.492 6.61686 16.4879 6.62046C16.4839 6.62406 16.6172 7.2661 16.7841 8.04713C16.9509 8.82832 17.0839 9.47021 17.0797 9.47365C17.0754 9.4771 16.6481 9.1171 16.13 8.67358C15.612 8.23021 15.1146 7.80633 15.0248 7.73181L14.8617 7.59642L14.5924 7.7564C14.4443 7.84442 14.3231 7.93273 14.3231 7.95252C14.3231 7.97846 15.9434 10.6927 15.9907 10.746C15.9943 10.7501 16.0785 10.7029 16.1777 10.6411L16.3582 10.5288L15.7122 9.46121C15.3569 8.87405 15.0431 8.35031 15.0151 8.29753C14.9515 8.17773 14.8479 8.09571 16.1216 9.17213C16.6784 9.64264 17.1505 10.0275 17.1709 10.0275C17.249 10.0275 17.511 9.83351 17.4951 9.78748C17.4555 9.67367 16.9361 7.13265 16.9496 7.11901C16.9578 7.11076 17.2528 7.58457 17.605 8.17173C17.9572 8.75889 18.2613 9.26434 18.2806 9.29493C18.3173 9.35265 18.5427 9.26464 18.6328 9.15743C18.6673 9.11635 17.0582 6.37036 16.9854 6.34652C16.9695 6.34128 16.8527 6.3993 16.7259 6.47547ZM20.2537 6.86906C19.9737 6.98856 19.7445 7.10746 19.7443 7.13325C19.7437 7.21272 19.8712 7.45172 19.9145 7.45187C19.9494 7.45202 20.9686 7.03594 21.0071 7.00566C21.0476 6.97402 20.8798 6.64475 20.8248 6.64805C20.7907 6.65015 20.5337 6.74956 20.2537 6.86906ZM43.2357 7.66494C42.5313 8.75694 42.4513 8.91903 42.4489 9.25864C42.4432 10.0859 43.656 10.814 44.3552 10.403C44.6155 10.25 44.7849 10.0379 45.3721 9.12999C45.6614 8.68272 45.9207 8.28209 45.9481 8.2398C45.9937 8.16963 45.9819 8.15224 45.8132 8.04099L45.6282 7.91908L45.084 8.75754C44.1085 10.2608 43.8386 10.4066 43.1497 9.80172C42.6718 9.38204 42.7205 9.248 44.1327 7.09937L44.2 6.99711L44.0274 6.87836C43.9325 6.81298 43.8469 6.7596 43.8373 6.7596C43.8275 6.7596 43.5568 7.16699 43.2357 7.66494ZM28.7402 8.13065C17.833 8.88619 9.36148 17.0135 8.22854 27.8088C8.12598 28.787 8.10394 30.6344 8.19495 30.6352C18.1572 30.7254 25.6473 31.6165 28.6171 33.0648L28.9362 33.2203L29.3181 33.0406C32.5655 31.5132 39.5186 30.7407 51.0774 30.6233L51.8655 30.6154L51.8595 29.731C51.7752 17.3329 41.0159 7.28034 28.7402 8.13065ZM46.5377 9.26824C46.3381 9.50619 45.8642 10.0707 45.4847 10.5229L44.7946 11.3452L44.9468 11.4738C45.0305 11.5448 45.108 11.6029 45.119 11.6032C45.1301 11.6035 45.5018 11.1707 45.9451 10.6414C46.3885 10.1119 46.7553 9.69242 46.7601 9.70906C46.7647 9.7257 46.6935 10.4052 46.6014 11.2194L46.4344 12.6996L46.5885 12.8437C46.6734 12.923 46.7572 12.9879 46.7746 12.9879C46.8074 12.9879 48.8875 10.5241 48.8839 10.4893C48.8829 10.4785 48.8129 10.4144 48.7283 10.3466L48.5748 10.2236L48.4491 10.3658C48.3801 10.4441 48.0153 10.8765 47.6387 11.3266C47.2621 11.7767 46.9476 12.1388 46.94 12.1312C46.9323 12.1235 46.9952 11.4885 47.0794 10.7201C47.2685 8.99715 47.2685 9.11635 47.0809 8.96071C46.9982 8.89189 46.9238 8.83566 46.9157 8.83566C46.9074 8.83566 46.7374 9.03028 46.5377 9.26824ZM12.4408 9.33211L12.2694 9.48025L12.7443 11.0323C13.0054 11.8859 13.2349 12.6408 13.2542 12.7101L13.2891 12.8359L13.4632 12.7108C13.559 12.6422 13.6442 12.5748 13.6526 12.5614C13.6608 12.5479 13.5989 12.3319 13.5148 12.0817C13.4307 11.8314 13.3619 11.6052 13.3619 11.5791C13.3619 11.5121 14.3916 10.7081 14.4489 10.7304C14.4749 10.7405 14.6842 10.8619 14.914 11.0002L15.3321 11.2516L15.5174 11.1105C15.6193 11.033 15.7038 10.96 15.705 10.9486C15.7071 10.9276 12.6655 9.18067 12.6306 9.18292C12.6206 9.18352 12.5351 9.25069 12.4408 9.33211ZM13.5841 10.1989C13.8226 10.3433 14.0261 10.4749 14.0364 10.4916C14.0541 10.5204 13.2942 11.141 13.2401 11.142C13.2259 11.1422 13.1121 10.8354 12.9872 10.4601C12.8621 10.0847 12.7455 9.74474 12.7278 9.70471C12.7044 9.65118 12.7567 9.67247 12.9231 9.78403C13.0482 9.86784 13.3457 10.0547 13.5841 10.1989ZM10.6147 10.8717L10.4647 11.0252L10.5389 11.1113C10.7775 11.3884 12.682 13.4108 12.7044 13.4108C12.7191 13.4108 12.7946 13.3458 12.8722 13.2664L13.0132 13.122L12.0316 12.0649C11.4917 11.4836 10.9858 10.9428 10.9072 10.8631L10.7645 10.7183L10.6147 10.8717ZM49.3679 11.1629L49.218 11.2887L49.5925 11.6857L49.9669 12.0826L49.609 12.4303C49.4122 12.6215 48.9454 13.0738 48.5718 13.4353L47.8925 14.0928L48.0528 14.2491L48.2131 14.4055L49.2487 13.4007L50.2842 12.396L50.6633 12.7953L51.0423 13.1947L51.1828 13.0542L51.3233 12.9137L51.0567 12.6336C50.9101 12.4796 50.5037 12.0573 50.1539 11.6953L49.5177 11.0371L49.3679 11.1629ZM9.45984 11.9668L9.28126 12.176L9.97923 13.4308C10.3631 14.1212 10.6701 14.6929 10.6618 14.7013C10.6532 14.7098 10.0591 14.4588 9.34169 14.1435L8.03722 13.5701L7.81605 13.8033C7.69445 13.9315 7.59504 14.0472 7.59504 14.0606C7.59504 14.0739 7.97979 14.4306 8.45 14.8532C8.92021 15.2757 9.46674 15.7675 9.66451 15.9461L10.0239 16.2705L10.1536 16.119C10.225 16.0356 10.2841 15.9575 10.2848 15.9453C10.2856 15.933 9.83648 15.5192 9.28666 15.0254C8.73683 14.5319 8.28701 14.1239 8.28701 14.1189C8.28701 14.1141 8.88257 14.3657 9.61053 14.6783L10.934 15.2465L11.0574 15.1193C11.2176 14.9541 11.2492 15.0359 10.5001 13.6787C10.1478 13.0401 9.86467 12.5125 9.87097 12.5062C9.87742 12.4997 10.3212 12.8891 10.8574 13.3712L11.8323 14.2477L11.9664 14.0994C12.04 14.0179 12.0944 13.9363 12.0871 13.9181C12.0652 13.863 9.71488 11.7577 9.6753 11.7577C9.65521 11.7577 9.5582 11.8517 9.45984 11.9668ZM51.236 14.2636C50.8492 15.5262 50.9697 15.3162 50.3352 15.8317L49.8046 16.2627L49.9365 16.4227C50.099 16.6196 50.0361 16.6439 50.6552 16.1453L51.1747 15.7269L52.2891 15.6429C52.9019 15.5966 53.4157 15.5556 53.4307 15.5516C53.4457 15.5477 53.3899 15.4571 53.3065 15.3504L53.155 15.156L52.8369 15.1853C52.6621 15.2013 52.2625 15.2427 51.9488 15.277C51.6353 15.3115 51.3729 15.3339 51.3657 15.3267C51.3587 15.3196 51.4725 14.9512 51.6188 14.5079C51.9321 13.5589 51.9253 13.6318 51.7205 13.3986L51.558 13.2134L51.236 14.2636ZM32.7563 15.2733C35.3456 15.6808 37.501 17.0493 38.8749 19.1585C39.0817 19.4756 39.5436 20.3462 39.5436 20.4183C39.5436 20.4353 39.4141 20.2946 39.2557 20.106C36.5807 16.9177 31.5762 16.4193 28.1121 18.9961L27.6953 19.3062L26.876 19.2224C26.4255 19.1762 25.6312 19.1086 25.1109 19.0722C24.5119 19.0302 24.1653 18.9909 24.1653 18.9651C24.1653 18.8918 24.8183 18.0997 25.1621 17.7558C27.0981 15.8198 30.0652 14.8499 32.7563 15.2733ZM6.80112 18.4111C6.73454 18.431 6.62734 18.5075 6.56271 18.581C6.15743 19.0426 6.67097 19.7286 7.22514 19.4656C7.85519 19.1668 7.47075 18.2106 6.80112 18.4111ZM52.6713 18.8648C52.311 19.0845 52.3078 19.6149 52.6654 19.8329C53.0283 20.0541 53.5378 19.7725 53.5378 19.3507C53.5378 18.9329 53.0283 18.6471 52.6713 18.8648ZM24.6458 19.6005C32.0368 19.8691 40.1119 21.675 42.2541 23.5384L42.3694 23.6387L42.1386 23.5382C38.9011 22.1285 32.5257 20.9626 27.1988 20.8061L26.3302 20.7806L26.1062 21.1421C24.1596 24.2839 24.671 28.1438 27.3789 30.7457L27.8637 31.2115L27.6172 31.1009C25.2882 30.056 23.4872 27.8354 22.9151 25.3032C22.8038 24.8108 22.911 24.8898 22.1417 24.7327C18.1269 23.9126 15.8627 22.7655 15.7535 21.4964C15.6412 20.1889 19.3099 19.4067 24.6458 19.6005ZM22.6465 20.8966C21.1392 21.038 19.7301 21.4258 19.2765 21.824C18.6442 22.3792 19.2393 23.3706 20.5754 23.9879C21.0501 24.2071 22.5831 24.7139 22.7719 24.7139C22.7926 24.7139 22.7932 24.624 22.7732 24.4928C22.6398 23.6117 22.8032 21.9634 23.1104 21.0927C23.1409 21.0068 23.1656 20.9214 23.1656 20.9029C23.1656 20.8701 22.9563 20.8675 22.6465 20.8966ZM40.2164 24.1344C43.3836 24.601 47.0137 26.1688 50.3961 28.5305C51.0657 28.998 51.1585 29.081 50.8216 28.9116C47.4439 27.2131 42.836 26.4027 39.2027 26.8685C35.4554 27.3489 31.8975 29.1782 29.3875 31.9147C29.0053 32.3316 29.0085 32.3355 29.2232 31.7087C30.8478 26.9654 33.5943 24.4533 37.6021 24.0453C38.0337 24.0014 39.699 24.0581 40.2164 24.1344ZM42.1002 28.4826C44.412 28.5955 46.7002 28.9358 48.9628 29.5028C49.8104 29.7153 51.0281 30.075 50.6352 29.997C45.3775 28.9525 37.4094 29.9132 29.597 32.5335L28.9735 32.7427L28.5973 32.5775C24.916 30.9599 18.9477 30.0438 12.0667 30.0399C10.7729 30.0393 9.74337 30.0279 9.77921 30.0147C9.9131 29.9652 11.4873 29.71 12.2277 29.6178C18.7817 28.801 24.6281 29.6928 28.4475 32.0918C29.0395 32.4637 28.8945 32.4692 29.3854 32.0563C32.4533 29.4752 36.8902 28.2282 42.1002 28.4826ZM51.5196 31.0698C50.9107 31.1327 39.5271 32.371 34.2895 32.9444L28.9392 33.5302L24.3128 33.0234C20.7699 32.6354 10.9381 31.564 8.46484 31.2965L8.16226 31.2639L8.18805 31.6317C8.86008 41.1873 15.9921 49.3707 25.3763 51.3539C38.4009 54.1066 50.7361 44.9197 51.8107 31.6664C51.8661 30.9832 51.8898 31.0318 51.5196 31.0698ZM14.7465 35.7575C14.7291 35.8262 14.7043 35.93 14.6914 35.9881C14.6689 36.088 14.6557 36.0938 14.4543 36.0938C14.2693 36.0938 14.2436 36.085 14.2604 36.0267C14.2712 35.9896 14.299 35.8857 14.3222 35.7959L14.3645 35.6325H14.5713H14.7782L14.7465 35.7575ZM18.0612 35.6928C18.0732 35.7048 18.0692 35.7697 18.0522 35.837C18.0353 35.9043 18.0107 36.0069 17.9977 36.0651C17.9758 36.1625 17.9594 36.1708 17.7888 36.1708C17.5645 36.1708 17.5518 36.1601 17.591 36.0048C17.608 35.9375 17.6326 35.8349 17.6456 35.7767C17.6684 35.6751 17.9806 35.6121 18.0612 35.6928ZM35.6604 36.1034C35.6602 36.13 35.6256 36.2954 35.5834 36.4711C35.4771 36.9145 35.4735 36.9013 35.6998 36.9013C35.8907 36.9013 35.8925 36.9023 35.8674 37.007C35.816 37.2218 35.7862 37.247 35.5936 37.2373L35.4136 37.228L35.2552 37.9201C35.0315 38.8974 35.0384 38.8496 35.111 38.922C35.1578 38.9688 35.2123 38.9788 35.323 38.9611L35.472 38.9374L35.4467 39.0823C35.395 39.3775 34.987 39.4207 34.709 39.1603C34.5889 39.0477 34.5962 38.9632 34.8093 38.0258L34.9949 37.2088H34.8304H34.6658L34.7124 37.0479C34.7568 36.8945 34.7661 36.8869 34.9119 36.8845L35.0646 36.8821L35.1339 36.5937C35.2068 36.2903 35.6616 35.8667 35.6604 36.1034ZM40.9643 36.1612C40.9633 36.1982 40.8024 36.9292 40.6067 37.7855L40.2512 39.3426L40.0479 39.3543C39.8518 39.3657 39.8455 39.363 39.8702 39.2774C39.8841 39.2286 39.9051 39.1553 39.9167 39.1144C39.9329 39.0574 39.9005 39.0718 39.7795 39.1754C39.1317 39.7299 38.3638 39.2264 38.4422 38.299C38.5339 37.2146 39.5286 36.5312 40.1339 37.1365C40.217 37.2196 40.289 37.2829 40.2939 37.277C40.2989 37.2712 40.3576 37.0242 40.4244 36.7282C40.4911 36.4323 40.5532 36.1684 40.5625 36.142C40.591 36.0603 40.9666 36.0781 40.9643 36.1612ZM47.0553 36.6356C47.0049 36.8488 46.9637 37.0391 46.9637 37.0584C46.9637 37.0778 47.0502 37.0935 47.1559 37.0935C47.367 37.0935 47.3646 37.0903 47.3082 37.2934C47.2697 37.4318 47.2634 37.4358 47.0685 37.4472L46.8683 37.4587L46.7055 38.1699C46.4813 39.1489 46.4911 39.2247 46.8323 39.1595C46.938 39.1393 46.9394 39.4142 46.834 39.4883C46.6278 39.6335 46.0793 39.399 46.0793 39.1657C46.0793 39.0953 46.3955 37.6411 46.4485 37.4683C46.4657 37.412 46.4438 37.401 46.3126 37.401C46.1457 37.401 46.1435 37.3977 46.1804 37.2136C46.2027 37.1017 46.2156 37.0935 46.3674 37.0935H46.5303L46.6028 36.7975C46.6719 36.5156 46.9122 36.2621 47.1226 36.2492C47.1359 36.2483 47.1057 36.4222 47.0553 36.6356ZM12.6435 36.481C12.7242 36.5035 12.8584 36.5899 12.9414 36.6731C13.1266 36.8581 13.1188 36.8582 13.1504 36.6705L13.1764 36.5168H13.3653C13.4692 36.5168 13.5541 36.5344 13.5541 36.556C13.5541 36.6326 13.0524 38.8091 12.9756 39.0655C12.7807 39.7159 12.0227 40.0247 11.3878 39.7122C11.0633 39.5525 10.8844 39.0105 11.1753 39.0686C11.2414 39.0818 11.3365 39.0926 11.3867 39.0926C11.4512 39.0926 11.478 39.1144 11.478 39.1664C11.478 39.3652 11.6364 39.4771 11.9175 39.4771C12.3028 39.4771 12.4814 39.3241 12.5913 38.9003C12.6159 38.8052 12.645 38.6965 12.6559 38.6589C12.6712 38.6064 12.6337 38.6199 12.4967 38.7164C12.0955 38.9994 11.5124 38.8565 11.2879 38.4206C10.8187 37.5088 11.7169 36.2237 12.6435 36.481ZM14.5555 36.5456C14.5566 36.5615 14.4398 37.0978 14.296 37.7373L14.0348 38.9003L13.8328 38.9004C13.7106 38.9004 13.631 38.8836 13.631 38.8578C13.631 38.8098 14.1213 36.6399 14.149 36.5648C14.1682 36.5131 14.5524 36.4949 14.5555 36.5456ZM15.3084 36.5702C15.3144 36.5755 15.5012 37.9867 15.5376 38.3017L15.5639 38.5296L15.6397 38.3786C15.6816 38.2956 15.9317 37.8513 16.1957 37.3914L16.6758 36.5552H16.8835C17.1525 36.5552 17.1917 36.4554 16.405 37.7717L15.719 38.9196L15.4824 38.9311C15.3523 38.9374 15.2457 38.9374 15.2455 38.9311C15.2455 38.9249 15.1677 38.3929 15.0725 37.749C14.9774 37.1052 14.8998 36.5654 14.8998 36.5494C14.8998 36.5276 15.2814 36.5471 15.3084 36.5702ZM20.0102 36.6626C20.3193 36.8935 20.3255 37.076 20.0613 38.2084L19.8776 38.9965L19.6762 39.0082C19.4299 39.0225 19.43 39.1199 19.6746 38.0309C19.8995 37.029 19.8965 36.9717 19.6158 36.9191C19.0841 36.8194 18.7849 37.197 18.5328 38.2854L18.3769 38.9581L18.1761 38.9697C17.9277 38.9841 17.9223 39.1072 18.2281 37.764C18.5225 36.4718 18.4745 36.5937 18.6889 36.5937C18.8742 36.5937 18.8784 36.6011 18.8249 36.8318L18.7919 36.9738L18.9976 36.8185C19.3465 36.5551 19.7771 36.4886 20.0102 36.6626ZM17.8417 36.7378C17.8279 36.8172 17.7095 37.3491 17.5786 37.9201L17.3406 38.9581L17.139 38.9697C17.0282 38.9761 16.9366 38.9674 16.9355 38.9505C16.9346 38.9336 17.0514 38.3963 17.195 37.7567L17.4564 36.5939L17.6617 36.5937H17.8668L17.8417 36.7378ZM22.027 36.6356C22.1098 36.6585 22.2574 36.753 22.3588 36.8479L22.5414 37.0187L22.5675 36.8446L22.5936 36.6705H22.7836C23.0188 36.6705 23.0266 36.5408 22.7067 37.9431C22.2735 39.8407 22.1952 39.9576 21.3587 39.9576C20.7599 39.9576 20.475 39.7714 20.4745 39.3799L20.4744 39.225L20.6739 39.2454C20.86 39.2643 20.8756 39.2741 20.9053 39.3889C20.9512 39.5667 21.066 39.6309 21.3383 39.6309C21.7528 39.6308 21.9006 39.4984 22.0253 39.0157C22.0922 38.7574 22.0933 38.7586 21.9154 38.8793C21.4277 39.2102 20.8164 38.9959 20.6499 38.4356C20.3675 37.4842 21.1936 36.4042 22.027 36.6356ZM26.0151 36.7097C27.1629 37.0284 26.7381 39.0298 25.4954 39.1582C24.7776 39.2322 24.3158 38.6989 24.432 37.9303C24.5643 37.0562 25.2789 36.5051 26.0151 36.7097ZM27.8178 36.7764C27.8179 36.7921 27.728 37.2059 27.6179 37.6958C27.3713 38.7944 27.3983 38.9163 27.8724 38.8452C28.322 38.7778 28.5354 38.4416 28.7585 37.4492L28.9077 36.786H29.1124C29.2514 36.786 29.3164 36.8013 29.3151 36.834C29.3142 36.8603 29.1965 37.3923 29.0539 38.0162L28.7943 39.1504L28.5894 39.1621C28.4208 39.1718 28.3883 39.1637 28.4063 39.1168C28.4183 39.0854 28.44 38.9935 28.4544 38.9127L28.4807 38.7659L28.351 38.8866C27.8418 39.3609 27.1105 39.2733 27.0221 38.7275C27.0074 38.637 27.0675 38.2872 27.2041 37.6699L27.4082 36.7474H27.6128C27.7254 36.7474 27.8176 36.7605 27.8178 36.7764ZM31.1072 36.8037L31.2415 36.8599L31.1793 37.0055C31.1449 37.0855 31.1082 37.1725 31.0974 37.1985C31.0827 37.234 31.0581 37.2353 30.9992 37.2038C30.5531 36.965 30.2038 37.4622 29.9148 38.7467L29.8154 39.1887L29.6238 39.1754C29.5108 39.1676 29.4332 39.1439 29.4344 39.1178C29.4356 39.0934 29.5538 38.563 29.697 37.9393L29.9573 36.8052L30.1417 36.7932L30.326 36.7813L30.3 36.9278C30.2858 37.0083 30.2639 37.1088 30.2518 37.1512C30.2377 37.1994 30.3012 37.1553 30.4221 37.0331C30.6812 36.771 30.8743 36.7064 31.1072 36.8037ZM12.1094 36.8584C11.5722 37.186 11.414 38.2263 11.8659 38.46C12.5916 38.8353 13.358 37.3302 12.6738 36.8732C12.512 36.7651 12.2727 36.7588 12.1094 36.8584ZM33.8857 36.8702C34.1482 36.9503 34.3919 37.2515 34.3919 37.4959C34.3919 37.6819 34.0368 37.6387 33.9602 37.4435C33.8188 37.0835 33.1882 37.0166 33.0382 37.3455C32.9648 37.507 33.0525 37.5952 33.5263 37.8354C34.1214 38.1372 34.2926 38.3629 34.1968 38.7188C33.963 39.5867 32.2834 39.4343 32.2782 38.5448L32.2773 38.4007H32.4837H32.6901L32.7111 38.5574C32.7781 39.0566 33.7284 39.1421 33.7696 38.6526C33.7861 38.4572 33.7111 38.3824 33.3153 38.199C32.785 37.9532 32.6233 37.7903 32.6233 37.5016C32.6233 36.966 33.2205 36.6674 33.8857 36.8702ZM36.7371 36.916C36.7371 36.9241 36.6506 37.312 36.5448 37.778C36.3075 38.8238 36.3055 38.8722 36.4942 38.9716C36.6224 39.039 36.7749 39.0243 36.9914 38.9234C37.3698 38.7472 37.4607 38.5509 37.7363 37.3145L37.8198 36.9397H38.0322C38.2333 36.9397 38.2437 36.9443 38.2234 37.0262C38.2116 37.0737 38.0964 37.5797 37.9675 38.1507C37.8387 38.7217 37.7241 39.219 37.713 39.2561C37.6737 39.3882 37.2987 39.3504 37.3311 39.2177C37.4121 38.8863 37.4197 38.9055 37.2616 39.0443C36.8165 39.4348 36.2324 39.454 36.0078 39.0857C35.8929 38.8974 35.9084 38.7215 36.1219 37.7855C36.2276 37.322 36.3141 36.9334 36.3141 36.922C36.3141 36.9106 36.4093 36.9013 36.5257 36.9013C36.6419 36.9013 36.7371 36.9079 36.7371 36.916ZM21.5433 37.0181C21.0764 37.2647 20.8602 38.1371 21.1686 38.5293C21.5737 39.0442 22.4176 38.3097 22.3506 37.5006C22.3131 37.0497 21.924 36.8172 21.5433 37.0181ZM42.6769 37.0538C43.0173 37.2004 43.1964 37.5189 43.1954 37.975C43.1945 38.3432 43.2525 38.3209 42.2715 38.3326L41.4083 38.3429L41.4177 38.5272C41.4518 39.1877 42.1901 39.3078 42.5616 38.7133C42.6355 38.5951 42.646 38.5911 42.83 38.6133C43.0735 38.6425 43.0696 38.6355 42.9513 38.8373C42.3076 39.9356 40.7929 39.4544 40.9979 38.2167C41.154 37.2748 41.9347 36.7339 42.6769 37.0538ZM25.4147 37.0613C24.659 37.4773 24.6398 38.8227 25.3897 38.8233C26.1224 38.8241 26.6025 37.4598 25.9992 37.092C25.8617 37.008 25.5417 36.9912 25.4147 37.0613ZM45.425 37.0839C45.6163 37.18 45.7336 37.3728 45.7325 37.5893C45.7315 37.7814 45.3734 39.3912 45.3197 39.4448C45.2586 39.5059 44.9221 39.4358 44.9417 39.3661C45.0284 39.0598 45.3104 37.722 45.3104 37.6169C45.3104 37.1452 44.5231 37.3347 44.2487 37.8726C44.1787 38.0098 43.8496 39.2844 43.8496 39.4183C43.8496 39.4295 43.7544 39.4387 43.638 39.4387C43.5218 39.4387 43.4266 39.4316 43.4266 39.4231C43.4266 39.3984 43.9271 37.1968 43.9496 37.1223C43.9655 37.07 44.0126 37.055 44.1624 37.055C44.3273 37.055 44.3517 37.0646 44.3345 37.1223C44.3235 37.1593 44.3022 37.2407 44.2874 37.3031L44.2603 37.4166L44.454 37.2743C44.8152 37.0092 45.1469 36.9442 45.425 37.0839ZM49.0205 37.1889C49.2438 37.2989 49.3834 37.4827 49.4134 37.7063L49.4344 37.8624H49.2179C49.0181 37.8624 49.0013 37.8556 49.0013 37.7748C49.0013 37.4565 48.4313 37.271 48.1584 37.5006C47.9194 37.7018 48.0104 37.8301 48.6018 38.1251C49.1402 38.3938 49.2637 38.5535 49.2218 38.9263C49.1229 39.8027 47.3905 39.7593 47.3175 38.8784L47.3001 38.6698L47.4588 38.664C47.5459 38.6608 47.6388 38.6565 47.6652 38.6544C47.6936 38.6521 47.7221 38.7163 47.7347 38.8106C47.8042 39.3318 48.8091 39.4041 48.8091 38.888C48.8091 38.7185 48.712 38.6325 48.3059 38.4422C47.7868 38.199 47.6556 38.0588 47.6556 37.7471C47.6556 37.1842 48.3965 36.8812 49.0205 37.1889ZM39.4546 37.3025C38.9172 37.4958 38.645 38.6167 39.0524 38.9593C39.4784 39.318 40.1173 38.7032 40.1324 37.9201C40.1422 37.4178 39.8569 37.1578 39.4546 37.3025ZM41.9846 37.3574C41.7687 37.4554 41.4281 37.8832 41.5087 37.9549C41.5168 37.9621 41.8155 37.9765 42.1722 37.9868L42.821 38.0057L42.7978 37.8096C42.7471 37.3815 42.3803 37.1776 41.9846 37.3574ZM23.3578 40.3923C23.3578 40.4274 23.1346 41.4192 23.1019 41.5293C23.0856 41.584 23.125 41.5675 23.2643 41.4612C23.8285 41.0303 24.5106 41.2107 24.511 41.7908C24.5112 41.9343 24.3726 42.613 24.1456 43.5812C24.1276 43.6581 24.1015 43.6677 23.912 43.6677C23.7269 43.6677 23.7014 43.6589 23.7189 43.6004C23.7943 43.3491 24.0882 41.9571 24.0878 41.8538C24.0867 41.6236 23.9387 41.5332 23.6508 41.587C23.1667 41.6774 23.0158 41.9149 22.7818 42.9564C22.7152 43.2525 22.6521 43.525 22.6414 43.562C22.6261 43.6157 22.5791 43.6293 22.4092 43.6293C22.2552 43.6293 22.2011 43.616 22.2135 43.5812C22.2231 43.5548 22.3922 42.8195 22.5897 41.9473L22.9485 40.3614H23.1532C23.2658 40.3614 23.3578 40.3752 23.3578 40.3923ZM22.0891 40.4368C22.0891 40.4571 22.0546 40.6222 22.0123 40.8034C21.9058 41.2595 21.9024 41.2456 22.1235 41.2456H22.3117L22.2823 41.3756C22.2365 41.5794 22.2126 41.5983 22.0187 41.5848L21.8411 41.5725L21.6829 42.2644C21.4607 43.2366 21.4668 43.1936 21.5398 43.2666C21.5856 43.3125 21.6446 43.3244 21.7537 43.3098C21.8934 43.2911 21.9025 43.2956 21.8818 43.3729C21.8696 43.4188 21.8592 43.4767 21.8591 43.5016C21.8567 43.7076 21.3607 43.7276 21.1477 43.5304C21.0128 43.4052 21.0218 43.289 21.2386 42.351L21.423 41.5531H21.2603H21.0977L21.1362 41.4014C21.1725 41.2587 21.1842 41.2489 21.3323 41.238L21.4898 41.2264L21.561 40.9381C21.6335 40.6445 22.0891 40.2121 22.0891 40.4368ZM37.083 40.6091C37.083 40.6634 36.3538 43.827 36.3339 43.8592C36.309 43.8994 35.9296 43.9159 35.9296 43.8767C35.9296 43.8649 36.094 43.1297 36.2949 42.2433C36.4958 41.3567 36.6601 40.6225 36.6601 40.6117C36.6601 40.6009 36.7554 40.592 36.8716 40.592C36.9879 40.592 37.083 40.5997 37.083 40.6091ZM39.6205 40.6716C39.6205 40.7114 38.9439 43.7323 38.9043 43.8695C38.8891 43.9219 38.8428 43.9369 38.6951 43.9369C38.4891 43.9369 38.489 43.9367 38.5413 43.7539C38.5852 43.6008 38.5912 43.6006 38.386 43.7631C37.6662 44.3338 36.905 43.6527 37.1178 42.6286C37.3193 41.6591 38.2733 41.1359 38.7921 41.7101C38.8785 41.8058 38.9365 41.8445 38.9472 41.8137C38.9565 41.7867 39.0169 41.5311 39.0815 41.2456C39.146 40.9601 39.2067 40.7049 39.2162 40.6785C39.2379 40.6186 39.6205 40.612 39.6205 40.6716ZM26.568 41.3572C26.945 41.5236 27.1453 41.9835 27.0616 42.49L27.0372 42.6385L26.1587 42.6234L25.2802 42.6083V42.7739C25.2802 43.4358 26.013 43.6256 26.4073 43.066C26.5292 42.8931 26.5781 42.8759 26.8117 42.9225L26.9303 42.9462L26.8534 43.0972C26.4156 43.9552 25.169 43.9609 24.9117 43.1059C24.5897 42.0362 25.6269 40.9412 26.568 41.3572ZM29.2665 41.9184C29.2917 42.2145 29.3236 42.6271 29.3377 42.8354L29.3632 43.2142L29.4889 42.9123C29.5578 42.7463 29.7454 42.3379 29.9055 42.0049L30.1966 41.3994H30.4246H30.6527L30.6764 41.8127C30.6894 42.04 30.7113 42.4471 30.7251 42.7171L30.75 43.2083L30.9311 42.8132C31.0307 42.596 31.2274 42.189 31.3682 41.9088L31.6243 41.3994H31.8162C32.0687 41.3994 32.0942 41.3198 31.4219 42.6354L30.8356 43.7827L30.6197 43.7829L30.4039 43.783L30.379 43.2929C30.3653 43.0233 30.3435 42.6174 30.3305 42.3908L30.3069 41.9791L30.0609 42.5063C29.9255 42.7961 29.7331 43.1977 29.6331 43.3986L29.4515 43.7638L29.2401 43.7503C29.1238 43.7428 29.0266 43.7343 29.0242 43.7311C29.0218 43.728 28.9822 43.2756 28.9362 42.7258C28.89 42.176 28.842 41.6431 28.8296 41.5414L28.8066 41.3566L29.0137 41.3684L29.2209 41.3803L29.2665 41.9184ZM33.6258 41.4434C34.5668 41.7253 34.3901 43.4074 33.379 43.7916C32.6868 44.0547 32.0345 43.6836 31.9794 42.9952C31.897 41.9701 32.738 41.1772 33.6258 41.4434ZM36.2087 41.5093C36.2796 41.5803 36.1021 41.9161 36.015 41.8761C35.5765 41.6743 35.2243 42.1259 34.9775 43.2064L34.8325 43.8408L34.6315 43.8523C34.5208 43.8587 34.4303 43.8581 34.4303 43.8509C34.4303 43.8394 34.8975 41.7797 34.9493 41.5629C34.9673 41.4878 34.9948 41.4764 35.1581 41.4764H35.3461L35.2956 41.6933L35.2452 41.9104L35.3855 41.753C35.6475 41.4594 36.042 41.3426 36.2087 41.5093ZM25.8303 41.6714C25.6569 41.7573 25.502 41.9343 25.4122 42.1491L25.3559 42.2836H26.0101H26.6642L26.664 42.1204C26.6637 41.6905 26.2461 41.4656 25.8303 41.6714ZM32.9863 41.7774C32.4572 42.025 32.1989 42.993 32.5598 43.3758C33.0132 43.8565 33.7638 43.3023 33.8049 42.4567C33.8336 41.8655 33.4604 41.5557 32.9863 41.7774ZM38.025 41.8942C37.4883 42.2276 37.3145 43.2894 37.7528 43.5568C38.2095 43.8354 38.775 43.2173 38.7746 42.44C38.7743 41.9437 38.3927 41.6659 38.025 41.8942ZM10.5018 46.3491L9.13537 47.7623L9.32444 47.9521L9.51352 48.1419L10.069 47.5676L10.6246 46.9934L11.0417 47.399C12.0367 48.3664 12.5483 48.4832 13.192 47.8899C13.886 47.2501 13.7333 46.7241 12.5136 45.5549L11.868 44.9359L10.5018 46.3491ZM12.4871 46.1979C13.0597 46.7797 13.1092 46.8701 13.0191 47.1706C12.8925 47.5934 12.4378 47.817 12.0647 47.6399C11.9334 47.5775 11.0123 46.7431 10.9832 46.6601C10.9699 46.6221 11.8919 45.6669 11.9418 45.6669C11.9542 45.6669 12.1995 45.9059 12.4871 46.1979ZM48.2029 45.7058C47.2992 45.894 46.5674 46.9991 46.9173 47.647C47.2772 48.3131 47.7411 48.3524 48.8475 47.8102C49.7197 47.3829 50.0194 47.3699 50.2164 47.7509C50.6274 48.5457 49.1999 49.5022 48.4631 48.9256L48.367 48.8504L48.204 49.0352L48.0411 49.22L48.139 49.3222C49.1199 50.346 51.3055 48.7475 50.646 47.4885C50.288 46.8049 49.7662 46.7637 48.6292 47.3291C47.8588 47.7122 47.6993 47.7423 47.4846 47.5456C47.2178 47.301 47.2577 46.9554 47.5921 46.6137C48.0569 46.1389 48.414 46.0684 48.8754 46.3606C48.9649 46.4172 49.2705 46.1884 49.2705 46.0648C49.2705 45.8537 48.5905 45.6252 48.2029 45.7058ZM14.0831 47.4835C12.1437 49.7987 11.9838 50.167 12.5712 50.965C13.2235 51.8508 14.2182 52.0135 14.9061 51.3467C15.1023 51.1564 16.6701 49.2498 16.6667 49.2054C16.6647 49.1807 16.3001 48.8964 16.2702 48.8964C16.2588 48.8964 15.8882 49.3419 15.4465 49.8863C14.5917 50.9404 14.4446 51.0938 14.1757 51.2128C13.6626 51.4397 12.8237 50.8215 12.8237 50.2163C12.8237 49.8927 12.877 49.8124 14.0673 48.3428L14.6765 47.5906L14.5509 47.4841C14.2555 47.2342 14.2918 47.2343 14.0831 47.4835ZM44.3604 48.5901L44.16 48.7439L45.3215 50.2859C45.9604 51.1339 46.5034 51.8357 46.5281 51.8453C46.5615 51.8582 48.2635 50.6243 48.4767 50.4327C48.5097 50.403 48.277 50.0541 48.2223 50.0512C48.2062 50.0505 47.8587 50.3006 47.4501 50.6072C47.0415 50.9138 46.6914 51.1639 46.672 51.1629C46.6527 51.162 46.1784 50.5478 45.6181 49.7983C45.0576 49.0487 44.5906 48.4356 44.5799 48.4359C44.5694 48.4361 44.4706 48.5055 44.3604 48.5901ZM15.96 51.0293C15.3982 51.928 14.9341 52.6827 14.9287 52.7062C14.9005 52.8304 16.5801 53.7898 16.9427 53.8567C17.8191 54.0183 18.5016 53.0058 18.008 52.2765L17.9408 52.1771L18.1792 52.1328C18.9609 51.9874 19.2155 51.0462 18.6274 50.4756C18.5045 50.3562 17.5973 49.7592 17.0268 49.4219C16.9971 49.4044 16.6293 49.9586 15.96 51.0293ZM42.9461 49.5563C41.3655 49.8536 40.9175 51.7602 42.1382 52.9944C43.4782 54.3494 45.725 53.1302 45.2899 51.2845C45.0166 50.1246 43.9815 49.3615 42.9461 49.5563ZM43.7955 50.137C44.7854 50.6438 45.1418 52.0376 44.4535 52.71C43.6559 53.4892 42.6001 53.1157 42.0415 51.8567C41.5563 50.763 42.7439 49.5984 43.7955 50.137ZM17.5242 50.2854C18.2794 50.7555 18.4368 50.9063 18.4368 51.1603C18.4368 51.5581 18.0872 51.8439 17.7212 51.7454C17.5497 51.6992 16.5679 51.1031 16.5803 51.0527C16.5924 51.0036 17.1721 50.0883 17.1912 50.0883C17.2 50.0883 17.3499 50.1769 17.5242 50.2854ZM18.9174 52.8232C18.4521 53.7772 18.0671 54.5689 18.0615 54.5827C18.0506 54.6101 18.2527 54.7136 19.4594 55.2987L20.2708 55.6919L20.3727 55.484L20.4748 55.276L19.6221 54.8539C19.1531 54.6218 18.763 54.4256 18.7553 54.4179C18.7475 54.4101 19.0796 53.7071 19.4935 52.8557C19.9071 52.0042 20.2409 51.3035 20.2351 51.2984C20.2033 51.2708 19.8187 51.0879 19.7932 51.0882C19.7767 51.0884 19.3825 51.8691 18.9174 52.8232ZM39.4961 51.4334C38.0409 51.692 37.4443 53.153 38.2434 54.5007C38.9073 55.6203 40.3259 55.8074 41.2358 54.8952C42.5046 53.6237 41.2474 51.1221 39.4961 51.4334ZM16.9989 51.9165C17.6404 52.3317 17.784 52.5921 17.591 52.9908C17.3414 53.5063 17.0063 53.4961 16.1194 52.9455L15.5898 52.6168L15.6672 52.4963C15.7096 52.43 15.8697 52.1735 16.023 51.9264L16.3016 51.477L16.4368 51.5586C16.5113 51.6036 16.7641 51.7646 16.9989 51.9165ZM40.2552 52.0067C41.1819 52.4167 41.5395 54.0173 40.8447 54.6451C39.9668 55.4381 38.7944 54.9021 38.4464 53.5483C38.1667 52.4606 39.231 51.5536 40.2552 52.0067ZM22.2639 52.4401C22.0615 52.9461 20.9357 55.8998 20.9357 55.9249C20.9357 55.9536 21.3993 56.1367 21.4173 56.1152C21.4418 56.0863 22.8214 52.4609 22.8118 52.4512C22.7911 52.4306 22.3945 52.2796 22.3611 52.2796C22.3429 52.2796 22.2993 52.3519 22.2639 52.4401ZM36.8908 52.5389C36.7746 52.5722 36.6732 52.6041 36.6657 52.6101C36.6582 52.6159 36.7509 52.961 36.8716 53.3767C36.9921 53.7924 37.0761 54.1455 37.0581 54.1612C37.0233 54.1918 35.2465 54.7017 35.1752 54.7017C35.1407 54.7017 34.9943 54.2369 34.7315 53.292L34.6976 53.1701L34.4773 53.2305C34.3563 53.2638 34.2428 53.3037 34.2253 53.319C34.1999 53.3412 34.6651 55.0276 35.2021 56.8606L35.2771 57.1164L35.5115 57.0454C35.6403 57.0065 35.7536 56.9666 35.7634 56.957C35.773 56.9472 35.6664 56.5464 35.5263 56.0662C35.3863 55.5859 35.277 55.1884 35.2836 55.1826C35.3093 55.1598 37.2136 54.6272 37.2257 54.6394C37.2329 54.6466 37.3488 55.0363 37.4832 55.5056C37.6175 55.9747 37.736 56.3671 37.7465 56.3775C37.7797 56.4108 38.2365 56.267 38.235 56.2236C38.2312 56.1166 37.166 52.4934 37.1362 52.4864C37.1176 52.482 37.0071 52.5056 36.8908 52.5389ZM23.9747 53.0136C23.0248 53.1998 22.3491 54.4304 22.5483 55.6113C22.8008 57.1084 24.8355 57.5753 25.663 56.326C25.8134 56.099 25.8172 56.1118 25.559 55.9716L25.3378 55.8515L25.2819 55.9398C24.57 57.0636 23.0503 56.6126 23.0503 55.2775C23.0503 54.4735 23.4775 53.672 24.0012 53.4935C24.7124 53.2512 25.452 53.6538 25.5672 54.3461L25.5945 54.5095H25.8626H26.1307L26.1041 54.3269C25.968 53.3919 25.0217 52.8085 23.9747 53.0136ZM32.2476 53.5634C30.9556 53.8898 30.4752 55.3334 31.2036 56.7001C31.9006 58.0082 33.8831 57.8661 34.352 56.4745C34.4716 56.1193 34.4605 56.0089 34.3054 56.0085C34.2367 56.0082 34.1155 55.9974 34.0362 55.9842C33.8956 55.9609 33.892 55.9633 33.892 56.0792C33.892 57.2213 32.178 57.5131 31.6642 56.4586C31.1964 55.4985 31.3749 54.4623 32.0669 54.1216C32.6985 53.8108 33.2135 53.9525 33.6261 54.5508L33.687 54.6389L33.9145 54.5485C34.0395 54.4987 34.1484 54.4531 34.1562 54.4472C34.1872 54.4232 33.9657 54.0925 33.8145 53.9366C33.4664 53.5781 32.8091 53.4216 32.2476 53.5634ZM28.6057 53.7178C28.0458 53.8565 27.7293 54.2258 27.7293 54.7401C27.7293 55.3237 28.0324 55.5798 29.0765 55.8792C29.9477 56.129 30.1051 56.2421 30.1051 56.6169C30.1051 57.545 28.255 57.4666 28.0452 56.5295L27.9956 56.3079L27.8244 56.3314C27.7302 56.3443 27.6187 56.3548 27.5765 56.3548C27.5065 56.3548 27.5023 56.3719 27.5268 56.5568C27.7365 58.1413 30.6215 58.1526 30.6238 56.5689C30.6247 55.938 30.3222 55.6795 29.2103 55.3604C28.3462 55.1126 28.2151 55.0171 28.2495 54.6608C28.324 53.885 29.849 53.9524 30.0466 54.7401L30.09 54.9132L30.3417 54.9001L30.5933 54.8871L30.5668 54.7095C30.4513 53.9401 29.5496 53.4839 28.6057 53.7178Z" fill="white"/>
</svg>
